<mxfile host="Electron" modified="2024-03-17T09:31:44.195Z" agent="Mozilla/5.0 (Windows NT 10.0; Win64; x64) AppleWebKit/537.36 (KHTML, like Gecko) draw.io/23.1.5 Chrome/120.0.6099.109 Electron/28.1.0 Safari/537.36" etag="SnwkwndVqENkuQhLAqCp" version="23.1.5" type="device" pages="3">
  <diagram name="Page-1" id="SBs-AK8TGKzCLHx1HG1-">
    <mxGraphModel dx="1434" dy="836" grid="0" gridSize="10" guides="1" tooltips="1" connect="1" arrows="1" fold="1" page="1" pageScale="1" pageWidth="850" pageHeight="1100" math="0" shadow="0">
      <root>
        <mxCell id="0" />
        <mxCell id="1" parent="0" />
        <mxCell id="wdFYyP7IZB3vCb54DyX5-9" value="" style="group" parent="1" vertex="1" connectable="0">
          <mxGeometry x="548" y="57" width="169" height="217" as="geometry" />
        </mxCell>
        <mxCell id="wdFYyP7IZB3vCb54DyX5-5" value="" style="rounded=1;whiteSpace=wrap;html=1;" parent="wdFYyP7IZB3vCb54DyX5-9" vertex="1">
          <mxGeometry width="169" height="217" as="geometry" />
        </mxCell>
        <mxCell id="wdFYyP7IZB3vCb54DyX5-6" value="" style="rounded=0;whiteSpace=wrap;html=1;" parent="wdFYyP7IZB3vCb54DyX5-9" vertex="1">
          <mxGeometry x="47" y="30" width="70" height="40" as="geometry" />
        </mxCell>
        <mxCell id="wdFYyP7IZB3vCb54DyX5-8" value="" style="rounded=0;whiteSpace=wrap;html=1;" parent="wdFYyP7IZB3vCb54DyX5-9" vertex="1">
          <mxGeometry x="47" y="126" width="77" height="40" as="geometry" />
        </mxCell>
        <mxCell id="wdFYyP7IZB3vCb54DyX5-22" value="&lt;b&gt;int a&lt;/b&gt;" style="text;html=1;align=center;verticalAlign=middle;resizable=0;points=[];autosize=1;strokeColor=none;fillColor=none;" parent="wdFYyP7IZB3vCb54DyX5-9" vertex="1">
          <mxGeometry x="60.5" y="70" width="43" height="26" as="geometry" />
        </mxCell>
        <mxCell id="wdFYyP7IZB3vCb54DyX5-23" value="&lt;b&gt;float b&lt;/b&gt;" style="text;html=1;align=center;verticalAlign=middle;resizable=0;points=[];autosize=1;strokeColor=none;fillColor=none;" parent="wdFYyP7IZB3vCb54DyX5-9" vertex="1">
          <mxGeometry x="57.5" y="166" width="54" height="26" as="geometry" />
        </mxCell>
        <mxCell id="wdFYyP7IZB3vCb54DyX5-20" value="&lt;b&gt;int&lt;/b&gt;" style="text;html=1;align=center;verticalAlign=middle;resizable=0;points=[];autosize=1;strokeColor=none;fillColor=none;" parent="1" vertex="1">
          <mxGeometry x="108.5" y="126" width="33" height="26" as="geometry" />
        </mxCell>
        <mxCell id="wdFYyP7IZB3vCb54DyX5-24" value="&lt;b&gt;struct abc&lt;/b&gt;" style="text;html=1;align=center;verticalAlign=middle;resizable=0;points=[];autosize=1;strokeColor=none;fillColor=none;" parent="1" vertex="1">
          <mxGeometry x="595" y="282" width="75" height="26" as="geometry" />
        </mxCell>
        <mxCell id="_a04NKDOX3JuaRjNHRXt-1" value="" style="group" parent="1" vertex="1" connectable="0">
          <mxGeometry x="65" y="57" width="360" height="88" as="geometry" />
        </mxCell>
        <mxCell id="wdFYyP7IZB3vCb54DyX5-10" value="" style="shape=table;startSize=0;container=1;collapsible=0;childLayout=tableLayout;" parent="_a04NKDOX3JuaRjNHRXt-1" vertex="1">
          <mxGeometry width="360" height="40" as="geometry" />
        </mxCell>
        <mxCell id="wdFYyP7IZB3vCb54DyX5-11" value="" style="shape=tableRow;horizontal=0;startSize=0;swimlaneHead=0;swimlaneBody=0;strokeColor=inherit;top=0;left=0;bottom=0;right=0;collapsible=0;dropTarget=0;fillColor=none;points=[[0,0.5],[1,0.5]];portConstraint=eastwest;" parent="wdFYyP7IZB3vCb54DyX5-10" vertex="1">
          <mxGeometry width="360" height="40" as="geometry" />
        </mxCell>
        <mxCell id="wdFYyP7IZB3vCb54DyX5-12" value="" style="shape=partialRectangle;html=1;whiteSpace=wrap;connectable=0;strokeColor=inherit;overflow=hidden;fillColor=none;top=0;left=0;bottom=0;right=0;pointerEvents=1;" parent="wdFYyP7IZB3vCb54DyX5-11" vertex="1">
          <mxGeometry width="60" height="40" as="geometry">
            <mxRectangle width="60" height="40" as="alternateBounds" />
          </mxGeometry>
        </mxCell>
        <mxCell id="wdFYyP7IZB3vCb54DyX5-13" value="" style="shape=partialRectangle;html=1;whiteSpace=wrap;connectable=0;strokeColor=inherit;overflow=hidden;fillColor=none;top=0;left=0;bottom=0;right=0;pointerEvents=1;" parent="wdFYyP7IZB3vCb54DyX5-11" vertex="1">
          <mxGeometry x="60" width="60" height="40" as="geometry">
            <mxRectangle width="60" height="40" as="alternateBounds" />
          </mxGeometry>
        </mxCell>
        <mxCell id="wdFYyP7IZB3vCb54DyX5-14" value="" style="shape=partialRectangle;html=1;whiteSpace=wrap;connectable=0;strokeColor=inherit;overflow=hidden;fillColor=none;top=0;left=0;bottom=0;right=0;pointerEvents=1;" parent="wdFYyP7IZB3vCb54DyX5-11" vertex="1">
          <mxGeometry x="120" width="60" height="40" as="geometry">
            <mxRectangle width="60" height="40" as="alternateBounds" />
          </mxGeometry>
        </mxCell>
        <mxCell id="wdFYyP7IZB3vCb54DyX5-15" value="" style="shape=partialRectangle;html=1;whiteSpace=wrap;connectable=0;strokeColor=inherit;overflow=hidden;fillColor=none;top=0;left=0;bottom=0;right=0;pointerEvents=1;" parent="wdFYyP7IZB3vCb54DyX5-11" vertex="1">
          <mxGeometry x="180" width="60" height="40" as="geometry">
            <mxRectangle width="60" height="40" as="alternateBounds" />
          </mxGeometry>
        </mxCell>
        <mxCell id="wdFYyP7IZB3vCb54DyX5-16" value="" style="shape=partialRectangle;html=1;whiteSpace=wrap;connectable=0;strokeColor=inherit;overflow=hidden;fillColor=none;top=0;left=0;bottom=0;right=0;pointerEvents=1;" parent="wdFYyP7IZB3vCb54DyX5-11" vertex="1">
          <mxGeometry x="240" width="60" height="40" as="geometry">
            <mxRectangle width="60" height="40" as="alternateBounds" />
          </mxGeometry>
        </mxCell>
        <mxCell id="wdFYyP7IZB3vCb54DyX5-17" value="" style="shape=partialRectangle;html=1;whiteSpace=wrap;connectable=0;strokeColor=inherit;overflow=hidden;fillColor=none;top=0;left=0;bottom=0;right=0;pointerEvents=1;" parent="wdFYyP7IZB3vCb54DyX5-11" vertex="1">
          <mxGeometry x="300" width="60" height="40" as="geometry">
            <mxRectangle width="60" height="40" as="alternateBounds" />
          </mxGeometry>
        </mxCell>
        <mxCell id="wdFYyP7IZB3vCb54DyX5-18" value="" style="shape=curlyBracket;whiteSpace=wrap;html=1;rounded=1;labelPosition=left;verticalLabelPosition=middle;align=right;verticalAlign=middle;direction=north;" parent="_a04NKDOX3JuaRjNHRXt-1" vertex="1">
          <mxGeometry y="52" width="120" height="20" as="geometry" />
        </mxCell>
        <mxCell id="wdFYyP7IZB3vCb54DyX5-19" value="" style="shape=curlyBracket;whiteSpace=wrap;html=1;rounded=1;labelPosition=left;verticalLabelPosition=middle;align=right;verticalAlign=middle;direction=north;" parent="_a04NKDOX3JuaRjNHRXt-1" vertex="1">
          <mxGeometry x="120" y="42" width="239" height="20" as="geometry" />
        </mxCell>
        <mxCell id="wdFYyP7IZB3vCb54DyX5-21" value="&lt;b&gt;float&lt;/b&gt;" style="text;html=1;align=center;verticalAlign=middle;resizable=0;points=[];autosize=1;strokeColor=none;fillColor=none;" parent="_a04NKDOX3JuaRjNHRXt-1" vertex="1">
          <mxGeometry x="218" y="62" width="43" height="26" as="geometry" />
        </mxCell>
        <mxCell id="gjEVGWz8HpCAclz9JxW7-2" style="edgeStyle=orthogonalEdgeStyle;rounded=0;orthogonalLoop=1;jettySize=auto;html=1;" parent="1" source="gjEVGWz8HpCAclz9JxW7-1" target="wdFYyP7IZB3vCb54DyX5-5" edge="1">
          <mxGeometry relative="1" as="geometry" />
        </mxCell>
        <mxCell id="gjEVGWz8HpCAclz9JxW7-1" value="100" style="rounded=1;whiteSpace=wrap;html=1;" parent="1" vertex="1">
          <mxGeometry x="278" y="219" width="120" height="60" as="geometry" />
        </mxCell>
        <mxCell id="gjEVGWz8HpCAclz9JxW7-3" value="" style="shape=table;startSize=0;container=1;collapsible=0;childLayout=tableLayout;" parent="1" vertex="1">
          <mxGeometry x="98" y="457" width="653" height="281" as="geometry" />
        </mxCell>
        <mxCell id="gjEVGWz8HpCAclz9JxW7-4" value="" style="shape=tableRow;horizontal=0;startSize=0;swimlaneHead=0;swimlaneBody=0;strokeColor=inherit;top=0;left=0;bottom=0;right=0;collapsible=0;dropTarget=0;fillColor=none;points=[[0,0.5],[1,0.5]];portConstraint=eastwest;" parent="gjEVGWz8HpCAclz9JxW7-3" vertex="1">
          <mxGeometry width="653" height="281" as="geometry" />
        </mxCell>
        <mxCell id="gjEVGWz8HpCAclz9JxW7-5" value="" style="shape=partialRectangle;html=1;whiteSpace=wrap;connectable=0;strokeColor=inherit;overflow=hidden;fillColor=none;top=0;left=0;bottom=0;right=0;pointerEvents=1;" parent="gjEVGWz8HpCAclz9JxW7-4" vertex="1">
          <mxGeometry width="130" height="281" as="geometry">
            <mxRectangle width="130" height="281" as="alternateBounds" />
          </mxGeometry>
        </mxCell>
        <mxCell id="gjEVGWz8HpCAclz9JxW7-6" value="" style="shape=partialRectangle;html=1;whiteSpace=wrap;connectable=0;strokeColor=inherit;overflow=hidden;fillColor=none;top=0;left=0;bottom=0;right=0;pointerEvents=1;" parent="gjEVGWz8HpCAclz9JxW7-4" vertex="1">
          <mxGeometry x="130" width="131" height="281" as="geometry">
            <mxRectangle width="131" height="281" as="alternateBounds" />
          </mxGeometry>
        </mxCell>
        <mxCell id="gjEVGWz8HpCAclz9JxW7-7" value="" style="shape=partialRectangle;html=1;whiteSpace=wrap;connectable=0;strokeColor=inherit;overflow=hidden;fillColor=none;top=0;left=0;bottom=0;right=0;pointerEvents=1;" parent="gjEVGWz8HpCAclz9JxW7-4" vertex="1">
          <mxGeometry x="261" width="131" height="281" as="geometry">
            <mxRectangle width="131" height="281" as="alternateBounds" />
          </mxGeometry>
        </mxCell>
        <mxCell id="gjEVGWz8HpCAclz9JxW7-8" value="" style="shape=partialRectangle;html=1;whiteSpace=wrap;connectable=0;strokeColor=inherit;overflow=hidden;fillColor=none;top=0;left=0;bottom=0;right=0;pointerEvents=1;" parent="gjEVGWz8HpCAclz9JxW7-4" vertex="1">
          <mxGeometry x="392" width="131" height="281" as="geometry">
            <mxRectangle width="131" height="281" as="alternateBounds" />
          </mxGeometry>
        </mxCell>
        <mxCell id="gjEVGWz8HpCAclz9JxW7-9" value="" style="shape=partialRectangle;html=1;whiteSpace=wrap;connectable=0;strokeColor=inherit;overflow=hidden;fillColor=none;top=0;left=0;bottom=0;right=0;pointerEvents=1;" parent="gjEVGWz8HpCAclz9JxW7-4" vertex="1">
          <mxGeometry x="523" width="130" height="281" as="geometry">
            <mxRectangle width="130" height="281" as="alternateBounds" />
          </mxGeometry>
        </mxCell>
        <mxCell id="gjEVGWz8HpCAclz9JxW7-10" value="" style="group" parent="1" vertex="1" connectable="0">
          <mxGeometry x="109" y="501" width="106" height="180" as="geometry" />
        </mxCell>
        <mxCell id="gjEVGWz8HpCAclz9JxW7-11" value="" style="rounded=1;whiteSpace=wrap;html=1;" parent="gjEVGWz8HpCAclz9JxW7-10" vertex="1">
          <mxGeometry width="106" height="180" as="geometry" />
        </mxCell>
        <mxCell id="gjEVGWz8HpCAclz9JxW7-12" value="" style="rounded=0;whiteSpace=wrap;html=1;" parent="gjEVGWz8HpCAclz9JxW7-10" vertex="1">
          <mxGeometry x="29.4792899408284" y="24.88479262672811" width="43.90532544378698" height="33.17972350230414" as="geometry" />
        </mxCell>
        <mxCell id="gjEVGWz8HpCAclz9JxW7-13" value="" style="rounded=0;whiteSpace=wrap;html=1;" parent="gjEVGWz8HpCAclz9JxW7-10" vertex="1">
          <mxGeometry x="29.4792899408284" y="104.51612903225806" width="48.29585798816568" height="33.17972350230414" as="geometry" />
        </mxCell>
        <mxCell id="gjEVGWz8HpCAclz9JxW7-14" value="&lt;b&gt;int a&lt;/b&gt;" style="text;html=1;align=center;verticalAlign=middle;resizable=0;points=[];autosize=1;strokeColor=none;fillColor=none;" parent="gjEVGWz8HpCAclz9JxW7-10" vertex="1">
          <mxGeometry x="37.946745562130175" y="58.064516129032256" width="43" height="26" as="geometry" />
        </mxCell>
        <mxCell id="gjEVGWz8HpCAclz9JxW7-15" value="&lt;b&gt;float b&lt;/b&gt;" style="text;html=1;align=center;verticalAlign=middle;resizable=0;points=[];autosize=1;strokeColor=none;fillColor=none;" parent="gjEVGWz8HpCAclz9JxW7-10" vertex="1">
          <mxGeometry x="36.065088757396445" y="137.6958525345622" width="54" height="26" as="geometry" />
        </mxCell>
        <mxCell id="gjEVGWz8HpCAclz9JxW7-17" value="" style="group" parent="1" vertex="1" connectable="0">
          <mxGeometry x="239" y="500" width="106" height="180" as="geometry" />
        </mxCell>
        <mxCell id="gjEVGWz8HpCAclz9JxW7-18" value="" style="rounded=1;whiteSpace=wrap;html=1;" parent="gjEVGWz8HpCAclz9JxW7-17" vertex="1">
          <mxGeometry width="106" height="180" as="geometry" />
        </mxCell>
        <mxCell id="gjEVGWz8HpCAclz9JxW7-19" value="" style="rounded=0;whiteSpace=wrap;html=1;" parent="gjEVGWz8HpCAclz9JxW7-17" vertex="1">
          <mxGeometry x="29.4792899408284" y="24.88479262672811" width="43.90532544378698" height="33.17972350230414" as="geometry" />
        </mxCell>
        <mxCell id="gjEVGWz8HpCAclz9JxW7-20" value="" style="rounded=0;whiteSpace=wrap;html=1;" parent="gjEVGWz8HpCAclz9JxW7-17" vertex="1">
          <mxGeometry x="29.4792899408284" y="104.51612903225806" width="48.29585798816568" height="33.17972350230414" as="geometry" />
        </mxCell>
        <mxCell id="gjEVGWz8HpCAclz9JxW7-21" value="&lt;b&gt;int a&lt;/b&gt;" style="text;html=1;align=center;verticalAlign=middle;resizable=0;points=[];autosize=1;strokeColor=none;fillColor=none;" parent="gjEVGWz8HpCAclz9JxW7-17" vertex="1">
          <mxGeometry x="37.946745562130175" y="58.064516129032256" width="43" height="26" as="geometry" />
        </mxCell>
        <mxCell id="gjEVGWz8HpCAclz9JxW7-22" value="&lt;b&gt;float b&lt;/b&gt;" style="text;html=1;align=center;verticalAlign=middle;resizable=0;points=[];autosize=1;strokeColor=none;fillColor=none;" parent="gjEVGWz8HpCAclz9JxW7-17" vertex="1">
          <mxGeometry x="36.065088757396445" y="137.6958525345622" width="54" height="26" as="geometry" />
        </mxCell>
        <mxCell id="gjEVGWz8HpCAclz9JxW7-23" value="" style="group" parent="1" vertex="1" connectable="0">
          <mxGeometry x="372" y="500" width="106" height="180" as="geometry" />
        </mxCell>
        <mxCell id="gjEVGWz8HpCAclz9JxW7-24" value="" style="rounded=1;whiteSpace=wrap;html=1;" parent="gjEVGWz8HpCAclz9JxW7-23" vertex="1">
          <mxGeometry width="106" height="180" as="geometry" />
        </mxCell>
        <mxCell id="gjEVGWz8HpCAclz9JxW7-25" value="" style="rounded=0;whiteSpace=wrap;html=1;" parent="gjEVGWz8HpCAclz9JxW7-23" vertex="1">
          <mxGeometry x="29.4792899408284" y="24.88479262672811" width="43.90532544378698" height="33.17972350230414" as="geometry" />
        </mxCell>
        <mxCell id="gjEVGWz8HpCAclz9JxW7-26" value="" style="rounded=0;whiteSpace=wrap;html=1;" parent="gjEVGWz8HpCAclz9JxW7-23" vertex="1">
          <mxGeometry x="29.4792899408284" y="104.51612903225806" width="48.29585798816568" height="33.17972350230414" as="geometry" />
        </mxCell>
        <mxCell id="gjEVGWz8HpCAclz9JxW7-27" value="&lt;b&gt;int a&lt;/b&gt;" style="text;html=1;align=center;verticalAlign=middle;resizable=0;points=[];autosize=1;strokeColor=none;fillColor=none;" parent="gjEVGWz8HpCAclz9JxW7-23" vertex="1">
          <mxGeometry x="37.946745562130175" y="58.064516129032256" width="43" height="26" as="geometry" />
        </mxCell>
        <mxCell id="gjEVGWz8HpCAclz9JxW7-28" value="&lt;b&gt;float b&lt;/b&gt;" style="text;html=1;align=center;verticalAlign=middle;resizable=0;points=[];autosize=1;strokeColor=none;fillColor=none;" parent="gjEVGWz8HpCAclz9JxW7-23" vertex="1">
          <mxGeometry x="36.065088757396445" y="137.6958525345622" width="54" height="26" as="geometry" />
        </mxCell>
        <mxCell id="gjEVGWz8HpCAclz9JxW7-29" value="" style="group" parent="1" vertex="1" connectable="0">
          <mxGeometry x="501" y="499" width="106" height="180" as="geometry" />
        </mxCell>
        <mxCell id="gjEVGWz8HpCAclz9JxW7-30" value="" style="rounded=1;whiteSpace=wrap;html=1;" parent="gjEVGWz8HpCAclz9JxW7-29" vertex="1">
          <mxGeometry width="106" height="180" as="geometry" />
        </mxCell>
        <mxCell id="gjEVGWz8HpCAclz9JxW7-31" value="" style="rounded=0;whiteSpace=wrap;html=1;" parent="gjEVGWz8HpCAclz9JxW7-29" vertex="1">
          <mxGeometry x="29.4792899408284" y="24.88479262672811" width="43.90532544378698" height="33.17972350230414" as="geometry" />
        </mxCell>
        <mxCell id="gjEVGWz8HpCAclz9JxW7-32" value="" style="rounded=0;whiteSpace=wrap;html=1;" parent="gjEVGWz8HpCAclz9JxW7-29" vertex="1">
          <mxGeometry x="29.4792899408284" y="104.51612903225806" width="48.29585798816568" height="33.17972350230414" as="geometry" />
        </mxCell>
        <mxCell id="gjEVGWz8HpCAclz9JxW7-33" value="&lt;b&gt;int a&lt;/b&gt;" style="text;html=1;align=center;verticalAlign=middle;resizable=0;points=[];autosize=1;strokeColor=none;fillColor=none;" parent="gjEVGWz8HpCAclz9JxW7-29" vertex="1">
          <mxGeometry x="37.946745562130175" y="58.064516129032256" width="43" height="26" as="geometry" />
        </mxCell>
        <mxCell id="gjEVGWz8HpCAclz9JxW7-34" value="&lt;b&gt;float b&lt;/b&gt;" style="text;html=1;align=center;verticalAlign=middle;resizable=0;points=[];autosize=1;strokeColor=none;fillColor=none;" parent="gjEVGWz8HpCAclz9JxW7-29" vertex="1">
          <mxGeometry x="36.065088757396445" y="137.6958525345622" width="54" height="26" as="geometry" />
        </mxCell>
        <mxCell id="gjEVGWz8HpCAclz9JxW7-35" value="" style="group" parent="1" vertex="1" connectable="0">
          <mxGeometry x="631" y="501" width="106" height="180" as="geometry" />
        </mxCell>
        <mxCell id="gjEVGWz8HpCAclz9JxW7-36" value="" style="rounded=1;whiteSpace=wrap;html=1;" parent="gjEVGWz8HpCAclz9JxW7-35" vertex="1">
          <mxGeometry width="106" height="180" as="geometry" />
        </mxCell>
        <mxCell id="gjEVGWz8HpCAclz9JxW7-37" value="" style="rounded=0;whiteSpace=wrap;html=1;" parent="gjEVGWz8HpCAclz9JxW7-35" vertex="1">
          <mxGeometry x="29.4792899408284" y="24.88479262672811" width="43.90532544378698" height="33.17972350230414" as="geometry" />
        </mxCell>
        <mxCell id="gjEVGWz8HpCAclz9JxW7-38" value="" style="rounded=0;whiteSpace=wrap;html=1;" parent="gjEVGWz8HpCAclz9JxW7-35" vertex="1">
          <mxGeometry x="29.4792899408284" y="104.51612903225806" width="48.29585798816568" height="33.17972350230414" as="geometry" />
        </mxCell>
        <mxCell id="gjEVGWz8HpCAclz9JxW7-39" value="&lt;b&gt;int a&lt;/b&gt;" style="text;html=1;align=center;verticalAlign=middle;resizable=0;points=[];autosize=1;strokeColor=none;fillColor=none;" parent="gjEVGWz8HpCAclz9JxW7-35" vertex="1">
          <mxGeometry x="37.946745562130175" y="58.064516129032256" width="43" height="26" as="geometry" />
        </mxCell>
        <mxCell id="gjEVGWz8HpCAclz9JxW7-40" value="&lt;b&gt;float b&lt;/b&gt;" style="text;html=1;align=center;verticalAlign=middle;resizable=0;points=[];autosize=1;strokeColor=none;fillColor=none;" parent="gjEVGWz8HpCAclz9JxW7-35" vertex="1">
          <mxGeometry x="36.065088757396445" y="137.6958525345622" width="54" height="26" as="geometry" />
        </mxCell>
      </root>
    </mxGraphModel>
  </diagram>
  <diagram id="Xxvc_F6GEkBESeaVV1Si" name="Page-2">
    <mxGraphModel dx="1434" dy="836" grid="0" gridSize="10" guides="1" tooltips="1" connect="1" arrows="1" fold="1" page="1" pageScale="1" pageWidth="850" pageHeight="1100" math="0" shadow="0">
      <root>
        <mxCell id="0" />
        <mxCell id="1" parent="0" />
        <mxCell id="ykW4eF8JMmrbJG7nthWR-71" value="&lt;b&gt;structure&lt;/b&gt;" style="text;html=1;align=center;verticalAlign=middle;resizable=0;points=[];autosize=1;strokeColor=none;fillColor=none;" parent="1" vertex="1">
          <mxGeometry x="666" y="258" width="70" height="26" as="geometry" />
        </mxCell>
        <mxCell id="ykW4eF8JMmrbJG7nthWR-73" value="" style="group" parent="1" vertex="1" connectable="0">
          <mxGeometry x="86" y="36" width="691" height="137" as="geometry" />
        </mxCell>
        <mxCell id="ykW4eF8JMmrbJG7nthWR-37" value="" style="shape=table;startSize=0;container=1;collapsible=0;childLayout=tableLayout;" parent="ykW4eF8JMmrbJG7nthWR-73" vertex="1">
          <mxGeometry x="115.16666666666666" y="1.2342342342342343" width="575.8333333333333" height="49.36936936936937" as="geometry" />
        </mxCell>
        <mxCell id="ykW4eF8JMmrbJG7nthWR-38" value="" style="shape=tableRow;horizontal=0;startSize=0;swimlaneHead=0;swimlaneBody=0;strokeColor=inherit;top=0;left=0;bottom=0;right=0;collapsible=0;dropTarget=0;fillColor=none;points=[[0,0.5],[1,0.5]];portConstraint=eastwest;" parent="ykW4eF8JMmrbJG7nthWR-37" vertex="1">
          <mxGeometry width="575.8333333333333" height="49" as="geometry" />
        </mxCell>
        <mxCell id="ykW4eF8JMmrbJG7nthWR-47" value="11.5" style="shape=partialRectangle;html=1;whiteSpace=wrap;connectable=0;strokeColor=inherit;overflow=hidden;fillColor=none;top=0;left=0;bottom=0;right=0;pointerEvents=1;" parent="ykW4eF8JMmrbJG7nthWR-38" vertex="1">
          <mxGeometry width="64" height="49" as="geometry">
            <mxRectangle width="64" height="49" as="alternateBounds" />
          </mxGeometry>
        </mxCell>
        <mxCell id="ykW4eF8JMmrbJG7nthWR-39" value="12.5" style="shape=partialRectangle;html=1;whiteSpace=wrap;connectable=0;strokeColor=inherit;overflow=hidden;fillColor=none;top=0;left=0;bottom=0;right=0;pointerEvents=1;" parent="ykW4eF8JMmrbJG7nthWR-38" vertex="1">
          <mxGeometry x="64" width="64" height="49" as="geometry">
            <mxRectangle width="64" height="49" as="alternateBounds" />
          </mxGeometry>
        </mxCell>
        <mxCell id="ykW4eF8JMmrbJG7nthWR-40" value="13.5" style="shape=partialRectangle;html=1;whiteSpace=wrap;connectable=0;strokeColor=inherit;overflow=hidden;fillColor=none;top=0;left=0;bottom=0;right=0;pointerEvents=1;" parent="ykW4eF8JMmrbJG7nthWR-38" vertex="1">
          <mxGeometry x="128" width="64" height="49" as="geometry">
            <mxRectangle width="64" height="49" as="alternateBounds" />
          </mxGeometry>
        </mxCell>
        <mxCell id="ykW4eF8JMmrbJG7nthWR-41" value="14.5" style="shape=partialRectangle;html=1;whiteSpace=wrap;connectable=0;strokeColor=inherit;overflow=hidden;fillColor=none;top=0;left=0;bottom=0;right=0;pointerEvents=1;" parent="ykW4eF8JMmrbJG7nthWR-38" vertex="1">
          <mxGeometry x="192" width="64" height="49" as="geometry">
            <mxRectangle width="64" height="49" as="alternateBounds" />
          </mxGeometry>
        </mxCell>
        <mxCell id="ykW4eF8JMmrbJG7nthWR-42" value="16.5" style="shape=partialRectangle;html=1;whiteSpace=wrap;connectable=0;strokeColor=inherit;overflow=hidden;fillColor=none;top=0;left=0;bottom=0;right=0;pointerEvents=1;" parent="ykW4eF8JMmrbJG7nthWR-38" vertex="1">
          <mxGeometry x="256" width="64" height="49" as="geometry">
            <mxRectangle width="64" height="49" as="alternateBounds" />
          </mxGeometry>
        </mxCell>
        <mxCell id="ykW4eF8JMmrbJG7nthWR-43" value="15.5" style="shape=partialRectangle;html=1;whiteSpace=wrap;connectable=0;strokeColor=inherit;overflow=hidden;fillColor=none;top=0;left=0;bottom=0;right=0;pointerEvents=1;" parent="ykW4eF8JMmrbJG7nthWR-38" vertex="1">
          <mxGeometry x="320" width="64" height="49" as="geometry">
            <mxRectangle width="64" height="49" as="alternateBounds" />
          </mxGeometry>
        </mxCell>
        <mxCell id="ykW4eF8JMmrbJG7nthWR-44" value="17.45" style="shape=partialRectangle;html=1;whiteSpace=wrap;connectable=0;strokeColor=inherit;overflow=hidden;fillColor=none;top=0;left=0;bottom=0;right=0;pointerEvents=1;" parent="ykW4eF8JMmrbJG7nthWR-38" vertex="1">
          <mxGeometry x="384" width="64" height="49" as="geometry">
            <mxRectangle width="64" height="49" as="alternateBounds" />
          </mxGeometry>
        </mxCell>
        <mxCell id="ykW4eF8JMmrbJG7nthWR-45" value="18.75" style="shape=partialRectangle;html=1;whiteSpace=wrap;connectable=0;strokeColor=inherit;overflow=hidden;fillColor=none;top=0;left=0;bottom=0;right=0;pointerEvents=1;" parent="ykW4eF8JMmrbJG7nthWR-38" vertex="1">
          <mxGeometry x="448" width="64" height="49" as="geometry">
            <mxRectangle width="64" height="49" as="alternateBounds" />
          </mxGeometry>
        </mxCell>
        <mxCell id="ykW4eF8JMmrbJG7nthWR-46" value="19.65" style="shape=partialRectangle;html=1;whiteSpace=wrap;connectable=0;strokeColor=inherit;overflow=hidden;fillColor=none;top=0;left=0;bottom=0;right=0;pointerEvents=1;" parent="ykW4eF8JMmrbJG7nthWR-38" vertex="1">
          <mxGeometry x="512" width="64" height="49" as="geometry">
            <mxRectangle width="64" height="49" as="alternateBounds" />
          </mxGeometry>
        </mxCell>
        <mxCell id="ykW4eF8JMmrbJG7nthWR-58" value="" style="shape=table;startSize=0;container=1;collapsible=0;childLayout=tableLayout;" parent="ykW4eF8JMmrbJG7nthWR-73" vertex="1">
          <mxGeometry x="115.16666666666666" y="87.63063063063063" width="575.8333333333333" height="49.36936936936937" as="geometry" />
        </mxCell>
        <mxCell id="ykW4eF8JMmrbJG7nthWR-59" value="" style="shape=tableRow;horizontal=0;startSize=0;swimlaneHead=0;swimlaneBody=0;strokeColor=inherit;top=0;left=0;bottom=0;right=0;collapsible=0;dropTarget=0;fillColor=none;points=[[0,0.5],[1,0.5]];portConstraint=eastwest;" parent="ykW4eF8JMmrbJG7nthWR-58" vertex="1">
          <mxGeometry width="575.8333333333333" height="49" as="geometry" />
        </mxCell>
        <mxCell id="ykW4eF8JMmrbJG7nthWR-60" value="15" style="shape=partialRectangle;html=1;whiteSpace=wrap;connectable=0;strokeColor=inherit;overflow=hidden;fillColor=none;top=0;left=0;bottom=0;right=0;pointerEvents=1;" parent="ykW4eF8JMmrbJG7nthWR-59" vertex="1">
          <mxGeometry width="64" height="49" as="geometry">
            <mxRectangle width="64" height="49" as="alternateBounds" />
          </mxGeometry>
        </mxCell>
        <mxCell id="ykW4eF8JMmrbJG7nthWR-61" value="25" style="shape=partialRectangle;html=1;whiteSpace=wrap;connectable=0;strokeColor=inherit;overflow=hidden;fillColor=none;top=0;left=0;bottom=0;right=0;pointerEvents=1;" parent="ykW4eF8JMmrbJG7nthWR-59" vertex="1">
          <mxGeometry x="64" width="64" height="49" as="geometry">
            <mxRectangle width="64" height="49" as="alternateBounds" />
          </mxGeometry>
        </mxCell>
        <mxCell id="ykW4eF8JMmrbJG7nthWR-62" value="35" style="shape=partialRectangle;html=1;whiteSpace=wrap;connectable=0;strokeColor=inherit;overflow=hidden;fillColor=none;top=0;left=0;bottom=0;right=0;pointerEvents=1;" parent="ykW4eF8JMmrbJG7nthWR-59" vertex="1">
          <mxGeometry x="128" width="64" height="49" as="geometry">
            <mxRectangle width="64" height="49" as="alternateBounds" />
          </mxGeometry>
        </mxCell>
        <mxCell id="ykW4eF8JMmrbJG7nthWR-63" value="45" style="shape=partialRectangle;html=1;whiteSpace=wrap;connectable=0;strokeColor=inherit;overflow=hidden;fillColor=none;top=0;left=0;bottom=0;right=0;pointerEvents=1;" parent="ykW4eF8JMmrbJG7nthWR-59" vertex="1">
          <mxGeometry x="192" width="64" height="49" as="geometry">
            <mxRectangle width="64" height="49" as="alternateBounds" />
          </mxGeometry>
        </mxCell>
        <mxCell id="ykW4eF8JMmrbJG7nthWR-64" value="55" style="shape=partialRectangle;html=1;whiteSpace=wrap;connectable=0;strokeColor=inherit;overflow=hidden;fillColor=none;top=0;left=0;bottom=0;right=0;pointerEvents=1;" parent="ykW4eF8JMmrbJG7nthWR-59" vertex="1">
          <mxGeometry x="256" width="64" height="49" as="geometry">
            <mxRectangle width="64" height="49" as="alternateBounds" />
          </mxGeometry>
        </mxCell>
        <mxCell id="ykW4eF8JMmrbJG7nthWR-65" value="65" style="shape=partialRectangle;html=1;whiteSpace=wrap;connectable=0;strokeColor=inherit;overflow=hidden;fillColor=none;top=0;left=0;bottom=0;right=0;pointerEvents=1;" parent="ykW4eF8JMmrbJG7nthWR-59" vertex="1">
          <mxGeometry x="320" width="64" height="49" as="geometry">
            <mxRectangle width="64" height="49" as="alternateBounds" />
          </mxGeometry>
        </mxCell>
        <mxCell id="ykW4eF8JMmrbJG7nthWR-66" value="75" style="shape=partialRectangle;html=1;whiteSpace=wrap;connectable=0;strokeColor=inherit;overflow=hidden;fillColor=none;top=0;left=0;bottom=0;right=0;pointerEvents=1;" parent="ykW4eF8JMmrbJG7nthWR-59" vertex="1">
          <mxGeometry x="384" width="64" height="49" as="geometry">
            <mxRectangle width="64" height="49" as="alternateBounds" />
          </mxGeometry>
        </mxCell>
        <mxCell id="ykW4eF8JMmrbJG7nthWR-67" value="85" style="shape=partialRectangle;html=1;whiteSpace=wrap;connectable=0;strokeColor=inherit;overflow=hidden;fillColor=none;top=0;left=0;bottom=0;right=0;pointerEvents=1;" parent="ykW4eF8JMmrbJG7nthWR-59" vertex="1">
          <mxGeometry x="448" width="64" height="49" as="geometry">
            <mxRectangle width="64" height="49" as="alternateBounds" />
          </mxGeometry>
        </mxCell>
        <mxCell id="ykW4eF8JMmrbJG7nthWR-68" value="95" style="shape=partialRectangle;html=1;whiteSpace=wrap;connectable=0;strokeColor=inherit;overflow=hidden;fillColor=none;top=0;left=0;bottom=0;right=0;pointerEvents=1;" parent="ykW4eF8JMmrbJG7nthWR-59" vertex="1">
          <mxGeometry x="512" width="64" height="49" as="geometry">
            <mxRectangle width="64" height="49" as="alternateBounds" />
          </mxGeometry>
        </mxCell>
        <mxCell id="ykW4eF8JMmrbJG7nthWR-69" value="&lt;b&gt;math&lt;/b&gt;" style="text;html=1;align=center;verticalAlign=middle;resizable=0;points=[];autosize=1;strokeColor=none;fillColor=none;" parent="ykW4eF8JMmrbJG7nthWR-73" vertex="1">
          <mxGeometry x="8.530864197530864" width="47" height="26" as="geometry" />
        </mxCell>
        <mxCell id="ykW4eF8JMmrbJG7nthWR-70" value="&lt;b&gt;physics&lt;/b&gt;" style="text;html=1;align=center;verticalAlign=middle;resizable=0;points=[];autosize=1;strokeColor=none;fillColor=none;" parent="ykW4eF8JMmrbJG7nthWR-73" vertex="1">
          <mxGeometry y="92.56756756756756" width="63" height="26" as="geometry" />
        </mxCell>
        <mxCell id="ykW4eF8JMmrbJG7nthWR-77" style="edgeStyle=orthogonalEdgeStyle;rounded=0;orthogonalLoop=1;jettySize=auto;html=1;" parent="1" source="ykW4eF8JMmrbJG7nthWR-74" target="ykW4eF8JMmrbJG7nthWR-76" edge="1">
          <mxGeometry relative="1" as="geometry" />
        </mxCell>
        <mxCell id="ykW4eF8JMmrbJG7nthWR-74" value="&lt;b&gt;Abstract Data Type&lt;/b&gt;" style="text;html=1;align=center;verticalAlign=middle;resizable=0;points=[];autosize=1;strokeColor=none;fillColor=none;" parent="1" vertex="1">
          <mxGeometry x="77" y="250" width="126" height="26" as="geometry" />
        </mxCell>
        <mxCell id="ykW4eF8JMmrbJG7nthWR-75" style="edgeStyle=orthogonalEdgeStyle;rounded=0;orthogonalLoop=1;jettySize=auto;html=1;entryX=-0.035;entryY=0.231;entryDx=0;entryDy=0;entryPerimeter=0;" parent="1" source="ykW4eF8JMmrbJG7nthWR-74" target="ykW4eF8JMmrbJG7nthWR-71" edge="1">
          <mxGeometry relative="1" as="geometry" />
        </mxCell>
        <mxCell id="ykW4eF8JMmrbJG7nthWR-76" value="&lt;b&gt;struct abc{&lt;br&gt;&amp;nbsp; &amp;nbsp; int a;&lt;br&gt;&amp;nbsp; &amp;nbsp; float b;&lt;br&gt;&lt;div style=&quot;&quot;&gt;&lt;b style=&quot;background-color: initial;&quot;&gt;};&lt;/b&gt;&lt;/div&gt;&lt;/b&gt;" style="text;html=1;align=left;verticalAlign=middle;resizable=0;points=[];autosize=1;strokeColor=none;fillColor=none;" parent="1" vertex="1">
          <mxGeometry x="265" y="295" width="80" height="70" as="geometry" />
        </mxCell>
      </root>
    </mxGraphModel>
  </diagram>
  <diagram id="0rFMHz4crzO0AoDNpSyn" name="Page-3">
    <mxGraphModel dx="819" dy="478" grid="0" gridSize="10" guides="1" tooltips="1" connect="1" arrows="1" fold="1" page="1" pageScale="1" pageWidth="850" pageHeight="1100" math="0" shadow="0">
      <root>
        <mxCell id="0" />
        <mxCell id="1" parent="0" />
        <mxCell id="4MVQeJRsKWTefwQY3eJ_-14" value="" style="rounded=0;whiteSpace=wrap;html=1;" vertex="1" parent="1">
          <mxGeometry x="99" y="660" width="262" height="70" as="geometry" />
        </mxCell>
        <mxCell id="BZEuPa1M-0yVOIj_SXjk-7" style="edgeStyle=orthogonalEdgeStyle;rounded=0;orthogonalLoop=1;jettySize=auto;html=1;exitX=1;exitY=0.5;exitDx=0;exitDy=0;entryX=0.434;entryY=0.993;entryDx=0;entryDy=0;entryPerimeter=0;" edge="1" parent="1" source="BZEuPa1M-0yVOIj_SXjk-8" target="BZEuPa1M-0yVOIj_SXjk-21">
          <mxGeometry relative="1" as="geometry">
            <mxPoint x="345" y="352.49" as="sourcePoint" />
            <mxPoint x="495" y="269.00428571428574" as="targetPoint" />
          </mxGeometry>
        </mxCell>
        <mxCell id="BZEuPa1M-0yVOIj_SXjk-8" value="&lt;b&gt;100&lt;/b&gt;" style="rounded=1;whiteSpace=wrap;html=1;" vertex="1" parent="1">
          <mxGeometry x="208" y="321" width="120" height="60" as="geometry" />
        </mxCell>
        <mxCell id="BZEuPa1M-0yVOIj_SXjk-23" value="" style="group" vertex="1" connectable="0" parent="1">
          <mxGeometry x="245" y="50" width="425" height="164" as="geometry" />
        </mxCell>
        <mxCell id="BZEuPa1M-0yVOIj_SXjk-21" value="" style="rounded=0;whiteSpace=wrap;html=1;" vertex="1" parent="BZEuPa1M-0yVOIj_SXjk-23">
          <mxGeometry width="425" height="164" as="geometry" />
        </mxCell>
        <mxCell id="BZEuPa1M-0yVOIj_SXjk-3" value="" style="rounded=0;whiteSpace=wrap;html=1;" vertex="1" parent="BZEuPa1M-0yVOIj_SXjk-23">
          <mxGeometry x="113" y="27" width="70" height="40" as="geometry" />
        </mxCell>
        <mxCell id="BZEuPa1M-0yVOIj_SXjk-4" value="" style="rounded=0;whiteSpace=wrap;html=1;" vertex="1" parent="BZEuPa1M-0yVOIj_SXjk-23">
          <mxGeometry x="188" y="27" width="77" height="40" as="geometry" />
        </mxCell>
        <mxCell id="BZEuPa1M-0yVOIj_SXjk-5" value="&lt;b&gt;int age;&lt;/b&gt;" style="text;html=1;align=center;verticalAlign=middle;resizable=0;points=[];autosize=1;strokeColor=none;fillColor=none;" vertex="1" parent="BZEuPa1M-0yVOIj_SXjk-23">
          <mxGeometry x="117.5" y="67" width="61" height="26" as="geometry" />
        </mxCell>
        <mxCell id="BZEuPa1M-0yVOIj_SXjk-6" value="&lt;b&gt;char sex;&lt;/b&gt;" style="text;html=1;align=center;verticalAlign=middle;resizable=0;points=[];autosize=1;strokeColor=none;fillColor=none;" vertex="1" parent="BZEuPa1M-0yVOIj_SXjk-23">
          <mxGeometry x="188" y="67" width="71" height="26" as="geometry" />
        </mxCell>
        <mxCell id="BZEuPa1M-0yVOIj_SXjk-9" value="" style="shape=table;startSize=0;container=1;collapsible=0;childLayout=tableLayout;" vertex="1" parent="BZEuPa1M-0yVOIj_SXjk-23">
          <mxGeometry x="5" y="93" width="413.5" height="37" as="geometry" />
        </mxCell>
        <mxCell id="BZEuPa1M-0yVOIj_SXjk-10" value="" style="shape=tableRow;horizontal=0;startSize=0;swimlaneHead=0;swimlaneBody=0;strokeColor=inherit;top=0;left=0;bottom=0;right=0;collapsible=0;dropTarget=0;fillColor=none;points=[[0,0.5],[1,0.5]];portConstraint=eastwest;" vertex="1" parent="BZEuPa1M-0yVOIj_SXjk-9">
          <mxGeometry width="413.5" height="37" as="geometry" />
        </mxCell>
        <mxCell id="BZEuPa1M-0yVOIj_SXjk-11" value="" style="shape=partialRectangle;html=1;whiteSpace=wrap;connectable=0;strokeColor=inherit;overflow=hidden;fillColor=none;top=0;left=0;bottom=0;right=0;pointerEvents=1;" vertex="1" parent="BZEuPa1M-0yVOIj_SXjk-10">
          <mxGeometry width="41" height="37" as="geometry">
            <mxRectangle width="41" height="37" as="alternateBounds" />
          </mxGeometry>
        </mxCell>
        <mxCell id="BZEuPa1M-0yVOIj_SXjk-12" value="" style="shape=partialRectangle;html=1;whiteSpace=wrap;connectable=0;strokeColor=inherit;overflow=hidden;fillColor=none;top=0;left=0;bottom=0;right=0;pointerEvents=1;movable=0;resizable=0;rotatable=0;deletable=0;editable=0;locked=1;" vertex="1" parent="BZEuPa1M-0yVOIj_SXjk-10">
          <mxGeometry x="41" width="42" height="37" as="geometry">
            <mxRectangle width="42" height="37" as="alternateBounds" />
          </mxGeometry>
        </mxCell>
        <mxCell id="BZEuPa1M-0yVOIj_SXjk-13" value="" style="shape=partialRectangle;html=1;whiteSpace=wrap;connectable=0;strokeColor=inherit;overflow=hidden;fillColor=none;top=0;left=0;bottom=0;right=0;pointerEvents=1;" vertex="1" parent="BZEuPa1M-0yVOIj_SXjk-10">
          <mxGeometry x="83" width="41" height="37" as="geometry">
            <mxRectangle width="41" height="37" as="alternateBounds" />
          </mxGeometry>
        </mxCell>
        <mxCell id="BZEuPa1M-0yVOIj_SXjk-14" value="" style="shape=partialRectangle;html=1;whiteSpace=wrap;connectable=0;strokeColor=inherit;overflow=hidden;fillColor=none;top=0;left=0;bottom=0;right=0;pointerEvents=1;" vertex="1" parent="BZEuPa1M-0yVOIj_SXjk-10">
          <mxGeometry x="124" width="41" height="37" as="geometry">
            <mxRectangle width="41" height="37" as="alternateBounds" />
          </mxGeometry>
        </mxCell>
        <mxCell id="BZEuPa1M-0yVOIj_SXjk-15" value="" style="shape=partialRectangle;html=1;whiteSpace=wrap;connectable=0;strokeColor=inherit;overflow=hidden;fillColor=none;top=0;left=0;bottom=0;right=0;pointerEvents=1;" vertex="1" parent="BZEuPa1M-0yVOIj_SXjk-10">
          <mxGeometry x="165" width="42" height="37" as="geometry">
            <mxRectangle width="42" height="37" as="alternateBounds" />
          </mxGeometry>
        </mxCell>
        <mxCell id="BZEuPa1M-0yVOIj_SXjk-16" value="" style="shape=partialRectangle;html=1;whiteSpace=wrap;connectable=0;strokeColor=inherit;overflow=hidden;fillColor=none;top=0;left=0;bottom=0;right=0;pointerEvents=1;" vertex="1" parent="BZEuPa1M-0yVOIj_SXjk-10">
          <mxGeometry x="207" width="41" height="37" as="geometry">
            <mxRectangle width="41" height="37" as="alternateBounds" />
          </mxGeometry>
        </mxCell>
        <mxCell id="BZEuPa1M-0yVOIj_SXjk-17" value="" style="shape=partialRectangle;html=1;whiteSpace=wrap;connectable=0;strokeColor=inherit;overflow=hidden;fillColor=none;top=0;left=0;bottom=0;right=0;pointerEvents=1;" vertex="1" parent="BZEuPa1M-0yVOIj_SXjk-10">
          <mxGeometry x="248" width="41" height="37" as="geometry">
            <mxRectangle width="41" height="37" as="alternateBounds" />
          </mxGeometry>
        </mxCell>
        <mxCell id="BZEuPa1M-0yVOIj_SXjk-18" value="" style="shape=partialRectangle;html=1;whiteSpace=wrap;connectable=0;strokeColor=inherit;overflow=hidden;fillColor=none;top=0;left=0;bottom=0;right=0;pointerEvents=1;" vertex="1" parent="BZEuPa1M-0yVOIj_SXjk-10">
          <mxGeometry x="289" width="42" height="37" as="geometry">
            <mxRectangle width="42" height="37" as="alternateBounds" />
          </mxGeometry>
        </mxCell>
        <mxCell id="BZEuPa1M-0yVOIj_SXjk-19" value="" style="shape=partialRectangle;html=1;whiteSpace=wrap;connectable=0;strokeColor=inherit;overflow=hidden;fillColor=none;top=0;left=0;bottom=0;right=0;pointerEvents=1;" vertex="1" parent="BZEuPa1M-0yVOIj_SXjk-10">
          <mxGeometry x="331" width="41" height="37" as="geometry">
            <mxRectangle width="41" height="37" as="alternateBounds" />
          </mxGeometry>
        </mxCell>
        <mxCell id="BZEuPa1M-0yVOIj_SXjk-20" value="" style="shape=partialRectangle;html=1;whiteSpace=wrap;connectable=0;strokeColor=inherit;overflow=hidden;fillColor=none;top=0;left=0;bottom=0;right=0;pointerEvents=1;" vertex="1" parent="BZEuPa1M-0yVOIj_SXjk-10">
          <mxGeometry x="372" width="42" height="37" as="geometry">
            <mxRectangle width="42" height="37" as="alternateBounds" />
          </mxGeometry>
        </mxCell>
        <mxCell id="BZEuPa1M-0yVOIj_SXjk-22" value="&lt;b&gt;name&lt;/b&gt;" style="text;html=1;align=center;verticalAlign=middle;resizable=0;points=[];autosize=1;strokeColor=none;fillColor=none;" vertex="1" parent="BZEuPa1M-0yVOIj_SXjk-23">
          <mxGeometry x="162" y="125" width="49" height="26" as="geometry" />
        </mxCell>
        <mxCell id="BZEuPa1M-0yVOIj_SXjk-32" value="Actor" style="shape=umlActor;verticalLabelPosition=bottom;verticalAlign=top;html=1;fontStyle=1;strokeColor=#FFFF33;" vertex="1" parent="BZEuPa1M-0yVOIj_SXjk-23">
          <mxGeometry x="27" y="28.5" width="23" height="37" as="geometry" />
        </mxCell>
        <mxCell id="BZEuPa1M-0yVOIj_SXjk-24" value="Actor" style="shape=umlActor;verticalLabelPosition=bottom;verticalAlign=top;html=1;fontStyle=1;strokeColor=#0000FF;" vertex="1" parent="1">
          <mxGeometry x="369" y="224" width="23" height="37" as="geometry" />
        </mxCell>
        <mxCell id="BZEuPa1M-0yVOIj_SXjk-33" value="&lt;b style=&quot;font-size: 23px;&quot;&gt;struct student *ptr;&lt;/b&gt;" style="text;html=1;align=center;verticalAlign=middle;resizable=0;points=[];autosize=1;strokeColor=none;fillColor=none;fontSize=23;" vertex="1" parent="1">
          <mxGeometry x="476" y="305" width="225" height="40" as="geometry" />
        </mxCell>
        <mxCell id="4MVQeJRsKWTefwQY3eJ_-1" value="" style="shape=stencil(lVrJcls3EPwaXlHYBsvZcf7DVZYjVhTJJSvb32cQFsCHHrJZvlEUmm+WnhXvlD79eP7y/ekU/Y+P97ffn/4+f/14PqVfTjGeX5+f3s8f+umUPp/Sp29v70+/vb/9+fr18vf3L+Pk+PTH21/jF/654Hpx1Q9U9P9evgndpfT/N79eAC/n1yOgudA3QEwudQrocQdUF9gTust5A6TgKgfUtgP0CUIBIFJOU6u7gLoDumtcpL5bSYrr/j4geO/87oiSXOZKSNgBaodMHVF2M1WZlr4NqE52QPMuNQIQ1LplVwsBJHREa06Y0mH+ewL0m0KeoL9Xd8/17ALRoQlaSUMkRgKIRqTqKgHUFWAL0DigOL97Wn2fiNI1umIApd4HKHOyIKARkUqZRDgAeiAAJbMFMJG8y5CYriFyEyEVEeMRhN+SXU4IqIR9ouyrCMhEpKwhByJxfmeZaeVAJpYFNHH5PeQ0CBuxa9YQBpE09xGA5tIOAO6HJDNbr6AurhAdUnIFskCcQXgbsGJ+ZbI26XUbYJJrVd+TCIptxssCeBcJv7Wmya5D0WRIKkQs+IQSXSBsVUDYlRblEnuCTBUXQJxngDzT0AJE55lICfO9lkWWXBUQ9yyQy/zmNiBixCnhhTkuuLYrncOMkHuAAN1Go6kvamLarZQKbU+C6TZSptk42AYozi7tNkBbrF1pJXwlbFVAhiauzRi8B/B7TCsdhZg1VHScskuIpxUQ9po1fM8ABZOAekaYWbVm7WZVrVhMh1X4F0Boh6WAsCsdEi3UA7DX3aBsZX4wgMaZYZKG6sTcVtDP2i2x349IJKG/37G8VReJfTS/NLSnsNKDSVjPN5ZeZope5zMdTaKLgucjIwS2hoE3n97Ik2Zk3zmfzflCGO0xxgKv/aZsqr9Z5tLfj3ie65sN/VmAecxzep71X2HmqMN5NufFSd7jeVYAb8gTWacza9fhvJBwz8b+gU6R2fAzusSaQSzHep42j9hsjvxG9cXlQqLzYMJarPHiWbXHoWLEI0ufuCgY51kFMHxWeYi+Hove0JfyOVh7Evk9DoLDX/T3veUDPZ9A30Dz58+eL5ivhFa7jsUuUvaM5AHmn/a6fT5jn+V58a3YUPNBSPu4hvKw4W/QZ3dvoiOyni+7/Ly4j/PYPJQH50H+QBUeAMtnDqhAUKEFTAENnlBpRhwhvIf8cBozqqkZyjrPeoiATcqDnimunHzopQPh3ZX2h26dle2RR3ez6jzA6tIoTMC8SBszBcCYpTMNBWQjUuGlNc8J5jCXUS6JmS2Vjnw+bnv4jC0w06Hg5JeFLr20u4V8nR/MlmbjKoEOcoMIMONnusJSAOQkaXTfr0k47Y4rmuOJSFeqHTYhbE+RAqbVB4vsFNFxNVGzjnl7d1zlK9rrRL8yZeCNSzObb6ELphxwGG18m6PcxEW29pqsVzPL+M6bC+VmgEVfpgO1mBVtV0/zhStk7863CGLiQQHs3qV4s5cudAc89tLZAIjjxubbGwDRQckcrUgEUOOcKY8AEtNVsMYNK5EQrc0sjQu9w2taduF+QOjOq5nO/wGXxooYAHGWmNuAbqzkaUyPqyOI6UqHnb52DQuQ+XJD5rZ0ATzdParVYR5XV7I6PYiw66DsYjVu3B7AJeGDW8U6ibDqA7+4HABYuHY6kygA63SiQ5sCYApLlW5dxp22uUCmOhTTJC673fM0DJ6jVWd+SKZv7fObu4CMgMKUTmbY6Pxe3izvQ+e35hmtNPbOTCQzX4V1G3sPUA2AKi2zNT8A2NJ4OC4ZABNJzEzJN+XKJdyRNP72QsEAGmblbMUtUqcDx8+/4/EYoB+ur5R8O7+8XN5IOf4fX0HRry6vr6TP/wE=);lineShape=1;strokeColor=#0000FF;" vertex="1" parent="1">
          <mxGeometry x="642.8501416519291" y="332.3341922385955" width="33.437607397394196" height="46.371919219038446" as="geometry" />
        </mxCell>
        <mxCell id="4MVQeJRsKWTefwQY3eJ_-2" value="" style="shape=stencil(lZbZbttADEW/Rq8XM5yVz2n6HwHi1EJdO3CcLn9fqsK0Jm2xyJsszxG3Sw6n9PC2f3rdTRTeLufT192P+fmyn9KniWg+7nfn+SJPU3qc0sPL6bz7cj69H5/X369Py8nl6dvp+/KFnysXEzotFIVf65uAXv68+LyeP8zHq/MpgvX5KEDaBnJGiRro4LYNlIbICiBGjdtAZRQN5IDWtwGuSDqGlnygoyQNtBHVfYDH9wbQCcHJkgAmrb2iV9clrgrg6LtUwdolLsjsABmkCyc2k1M4DmADsBtDb8jlBnBi6NlKQ1wiD4jI1QZNTh2aaKnYtEYnS62jagtSOK8OAnQdgzhZHfH1YOsg4nODJmRdaZF38eogQmgakKA9C33MiL9AQCRHGgRiC7TgAOKSCZrQPLU2cNBARfQaiG2WJNHZAWIICNqEJI6cWbmY0IC0SPDS1NCyBqQJvZYTB4yFNgS8VYhgLPCYbVulrtrCVR621ER6WC6zygNuxLEMaE+vHwXkSila4LUiOGnKxd6KJbu3HGU0HXSq7i0nQ0IboDYUf98jJN1xJC46SSV7Y1EaFu+rG1HrQvYAbyrJUNLdE9sYIhvnTe/EjOCULCCZrSGMQbvlvxkwbjPTzcqA6ukB2WQTyUlOHfvK1U7lNQCYzXGvwaJcatme90r7wRXv/+fl4d8++TIfDus6ev2/3T/l1bq7psff);lineShape=1;strokeColor=#0000FF;" vertex="1" parent="1">
          <mxGeometry x="648.8877312753091" y="332.7494663507829" width="6.723050366694484" height="4.805544448270926" as="geometry" />
        </mxCell>
        <mxCell id="4MVQeJRsKWTefwQY3eJ_-3" value="" style="shape=stencil(lVrLchw3DPyavbLAN3l2nP9wleVIFUVyyUpi/33AbHF22ZjpKd1WI2CGxKMBNHmJn348fvn+cAny4/3t9c+Hf5++vj9e4m+XEJ5eHh/ent711yV+vsRP317fHv54e/375ev17+9fhuT49dfrP+MNP696KbnWhlaQX9cnvrsm/z/5/arw/PRyr5BdDKtCc6kTheKCrArFFfaF4josKTsfiUJzHr4QXUhEobtcVgXvvD9WyB433abZ9uWjS36RL66y92dX1/cnV4lNc3NhlY9OyHqKuL6ux7taiHx0ZXWBuEo8UIpLGeSZx0p3oYK8kJCowQVcTyTrr9nE3AyRffnmZF1/mAvclW/iWgL7Vyav8bCuP7tC1t+y632Rr66T9bfmYlz3K/OLuwpd0GGaMpGkTA8YcZrFzEQ9zgi7A5bEFLKTdc/qhMKWpAtYv6BW7UyhTlTYFLrzxA1dw2IN0xhcZGZtrkJccEd3kwixuU4yRxXKuukUpu+PFPq6JEXwQvzgZcvFTUNXmeknwNU50HC1u84cH9WuBfBUJoQfubqsuy5pQvJRMMU1+kqbGLKvoIVzzaDqJygcJYRfM0hRKrIveBcABLTSBoICHROiad0im27VCZS1NCN+XyEhjjWt5aRQ6QLaGku6SCFWqvrvFcnUDKyU1OL86mmFKpZBNWJSqyszK57aEK3Bp8HCrKTVMIJCpeWqBAxvDfhIPK31v66hoSklTCHNhLxTyCSns2B4q0Ijm9aurULXJryoK3BBkzE+QTah0JiNAitaMc3gvLNrJpuI2idBbFRaR7UuA5KN2CApd2sU7qKPoYB2OnnNUY3vRBR8dRmCSSa27SskXFLjOOMDblpRgC5JsLQrkLCEaLMsb/L6SdZPzoq2yWv/yfpnbM9vDeB+qM6qfwfdLBninIg2eW2oyfsDtv9aS5hBAw48o6EmUedx3lGI6iwknF/tqdWzkzSQaY1NXjGY7FewiSl8/hK0Z+40LQWLea50v4LjnfYjmcpDodUBjsXzFo2bfKKFWeVX8NWB8uT9azxrA1ZIvsicFu/kGVQLjkdjIKb+hSKu5aQSRJGJmXfyQveLHaoWRL6egPLcv4BXKp/o+4NZDytMguOaygcaz9B2DXlqn2L2G+h+azbr5/lu5DONn27sw/DQ0BUqz0gpgz8q36l9oH3SCUeofaC+qDyrL1qzI8ozQkqwvpzKwyB7uh4YPU73K+lj9rT5yP0lxr88HsT4l8cb9A8jnkm9Fpy0TvMl2fyl9sk2f2l+VWMfjifN5DvHq2b2y/HQ5iPH2w/Lr/Fziv9AWp/Wlwb12p/ZM6E87x/A/qP+8vXAfjn7ZvBK+wdGvun7of5mShJZexZKr8js7u77K+Jfb/qHzicMJBu1P2Ssgcd81P6z0fVAv10SlQ/YX2n/3Ig9g2GfNlrjYF4IhktieJ4Qb3W+YPNCwnzX+YXlezbyleZXRfvUjTM5mO+yIapYvRhsNihEyjB6w6gMSp1NSBlb4la5Qt1htthMaJO4+wlL+wrGy4NTZ1Fa0UpdB13Gj3jsC3qZnj8iVHAPdTImR5QNZMKgyNlZXsDS1/loO3inggqM7hjMlv0C8YNiLaC77oGh3WDnBBUY3ClaQX/feb4p/HhgSTf67YjDzOC4PGmi/YwOZtOJQthgRMAPnKeqzXha6NCqGAFnVq3RKjXIbKCdCj3IaAWtpDDDzkp0ARBLTfgRlAm+wTyRaO0BRzk1NCMYB524ZpzWEob13TiucLJEYxPZp8TPh8zpahHannYTGtqPsNDo3RAsvAFQhWQmKAYCA1Sghc8UyMaSYCbi+TA2vXo68qMSVYBNx0xvDajjgEqOwWV+wgp+CJ3yPn2zyaZQJpV1FK0wGYWTo8OI1JvvtChqkQVuY1w/YQlkhlMfqadHo2AO31nroK1IWRX4dKoghHTsfLAvLwhjiZ4maXMHdE6gJ5kDgdb1eHoIWM3dAaFsgharKCDPPFYKtpMyj+H35SMiHj8mHeQ03Bs4O50D+ifSC0+5oD0zne50WMQiQq8xZG9aJMo+ZEPfek/p9sHemAtY7Eg11UnfbAqZVoTR5a0u8LxTVXQGSsE3esVAFaAHu7HYhwoJFdglo3FzrhsFdqSakSYeRBUJPFXAGzFCK7MqeLNpVgaHgv/gF+Rje0h4BDusxGJJFYJRYJ42Vx5vfOehgqk5DMB2Fdh9wY/fwjxX0B+3S5/fnp6fr3dG7/+Pl0T10fWCafz8Hw==);lineShape=1;strokeColor=#0000FF;" vertex="1" parent="1">
          <mxGeometry x="580.3069380330721" y="280.91980659721526" width="152.05211209141947" height="140.29905227068306" as="geometry" />
        </mxCell>
        <mxCell id="4MVQeJRsKWTefwQY3eJ_-4" value="" style="shape=stencil(lVbLctswDPwaXTEgwOc5Tf8jM3FqT10747ht8veFqjoRQXs7ucnyQgQWuwAnvXvZPjxvJuGX8+n4ffN793jeTvplEtkdtpvT7mxPk95Pevd0PG2+nY4/D4/L7+eHGTk//Tj+mr/wusS1Qq3OUcJvy5tCNfx98XXB73eHFb4ysXb40EjT7YAcqfYHaIQnpEjSuoCYKcntgMgU+hMyU6m3AyRSKn3NjVq8HRCUuD/BaIsgpRCo9Se0SgmwFJg09AGNIoM+kFSPbwCfiduABxypl4XhM6BIKCRfcAMM8UUDK0YryIeH/DNlQKjhXQMSKcjfFOPyjxQAn0Kce7xpBOSjVF0+cun4dRcMAjJJge9XCtl/n0H+JjhhHxBBA0zStfmKFXlA/aQwSqPCgH82X/WsoBp0ME0hBqQGuXhqpVLBLLXBlgG2YbQNGkWZal9yYIZ9i5SzP6BCnZahAFgxhTYwlJFvJA8tKNCXrgMJEsQUB18mkP9n8SaJ0BNUMikoQIrfZ8nWE5gsMZD2AVEuw/u69U2lPafKcAHm6q1pzkDrqWa/PQI8oBavIrxga/M+Yygim20SHR6ZwCZPGPDA96YBZ0u+3DGu4993ywe+An7MI24bGJ+An3mI9KNRIP/zEOkbrPD7qyHyrjk4SecD+gISVTCqDe/Wa4bb+7O3zP/j7eHjSvu02++XG/H6f38FtlfL9Vnv/wA=);lineShape=1;strokeColor=#0000FF;" vertex="1" parent="1">
          <mxGeometry x="574.8341831663445" y="347.76234830284216" width="6.692524162433983" height="11.214945365635296" as="geometry" />
        </mxCell>
        <mxCell id="4MVQeJRsKWTefwQY3eJ_-5" value="" style="shape=stencil(rVZdj9wgDPw1eR0ZGww8X6//46Tb60bd7p72tl//vtCI3EJSV5X6RogH7PEMMMnD2/Hp9TAxvd2ul8+H7/Pz7TjJh4l5Ph8P1/lWRpM8TvLwcrkePl0vX8/Py/frU42soy+Xb3WFHwtOGNlXFNPPZcaD6PfExyX+NJ/v4jNBpIsPDuoNQABrD4igZAASlDqAeoiRkiNqKTdEZAQ2tsgQ1wESIVtV65hTSgjBADBcX3X20PhnQFL4AVB4EANAjcUGuONhFxEFkTZbGEVoRM5jEdEZAEHwI01qpKSExJtGqAlwfedqqw01qUPYqskq2o8pFb06oxGaEfuiqyOMVscwAnxqvO23msE0AiwLFdb9YNJiW8sQRRq9mEIAWa6O0F4ahehoAQpLvb4rbwatFRD7Tic4y3KxaXPVksJZKQlSDyiuTcYOldbBo9EUX21c3+lSVTJSqtJII8BbBsobgILzfwQ4Qhi0xK33+ztAemUUsXqDJGnuWuOleXw3fj0gWrwokrH+5nIQMnVE7bJp8SVDyzuuaWY9h7VRvBvv28Xxfm4jG/UmcB+vICN9x81Wa/7wVn/jeBoRvCHRslxOQ7x165T8Xb++Axvl/uuD5O/xZfD++nmZT6fl8XT/f3wtlanlpSWPvwA=);lineShape=1;strokeColor=#0000FF;" vertex="1" parent="1">
          <mxGeometry x="580.9592798570586" y="349.3876097057497" width="2.816710711089919" height="2.16067117118668" as="geometry" />
        </mxCell>
        <mxCell id="4MVQeJRsKWTefwQY3eJ_-6" value="" style="shape=stencil(lVZdUxsxDPw197pjW/7SM6X/IzOE5qYhYUIo8O/RcVwbiYuYvl0crb0rrWwNdPO02zxuhxSezqfj7+3LeHfeDfRjSGk87Lan8SxfA90OdHN/PG1/nY7Ph7v59+Nmipy+Ho5/ph1eZ1wK6GVCpfD2uYLQPhZ+zvH78XARzxGcVHyp6MEBFNSoAFWOTA6gg0gDKkp3ALwQWACNkL8BVAXowdfQUbTo3tC8LBWwFs2EWh1AAmkN3BaSq4DelzL9BTCYHIAQ+AKo+TqgMUqxlIJzQquIBiCqnDpImbpJq2zhiG4JXadVSAZPAyHpE1pEKw6gIBi3yopHqYFZ9wMviV6vQ7TmkwaKjoYpJ+aEvPTsupeCLVwprjU4IzerIXlubfaEmlG8BmLkausQHUAMAcE0tdwLHidGNGYqKE5euYJNy0W35aSFiy6EbFHZqRzba0NIemkSxkbDRR7WEcG6Se6q6Jjj/wFoWnRubo8WNC0hZ8R4PZ4Qu4onXl6YdWeAdIOS3w0BSb8miZcTr8Qb3wnD5NgooOr9YwM5ppDnVeuN8qI6/DOSjm9I3gVmtxfTOtWKAZQ1Hb8vydrH96ckI5OJJ+cqWh1HnGp9P77Ix7/Z537c7+fR6fJ/OyvJ0jxn0e07);lineShape=1;strokeColor=#0000FF;" vertex="1" parent="1">
          <mxGeometry x="581.5304179997297" y="348.8164744257499" width="4.131714480886201" height="2.486491285014121" as="geometry" />
        </mxCell>
        <mxCell id="4MVQeJRsKWTefwQY3eJ_-7" value="" style="shape=stencil(lVbLbhsxDPyavRJ6izwn6X8YiFMv6tiB47bJ35fbhdYr2p4gN1nmrMjhcKQhPrzvNm/bIbj38+n4a/t3fD7vhvg4hDAedtvTeNbVEJ+G+PByPG1/no6/D8/z77fNFDmtXo9/pi98zDjPlMqECu5z3gkU8/+NH3P8fjys4pPG+z6+UnL3AVJIQgdgR7kAABNLD4iUPQAIiesBlRxKSYhrBxBHpcKUKveARD7ComvPqmhKCJDI9Sxpkg6x5IhTB/DOwaqVlJztERUcwanRvgCYIqCJw1URmQSd4CgamgJVuQ+oQsVoQyigopWTvnOcofrYUzInBAoJAKLVxpQkkCurNnpaa20jchsgjcQVAPVBYuNkATAeiEJObA1IGpMQomUpAdtQqZWrPjBIaaXmVau/OCIYMUU8czoQfRHKg0cnZJuS8pCAXMVb75usB7WaqSQLEDRymVK1KQmoQftUqy2a0UB8FxBzK7EBkl4BfB+QrN8H9XswcYHY3EA6s4BUT6H3Pb3zGAyoo9Dn4zMs+EqoXikD+avpmcuECpDpUlwLX/zjNv3t2ljYJw+Sz9YqAnnw9Wq9y1GFU9xG9hKPjMirc1UbD9SsnREx8Yziv/na+TpeF5en1cu4388vs/X/9immW/MzLj79Aw==);lineShape=1;strokeColor=#0000FF;" vertex="1" parent="1">
          <mxGeometry x="581.5549536992239" y="350.5580943617607" width="5.036553810059298" height="4.517315038949813" as="geometry" />
        </mxCell>
        <mxCell id="4MVQeJRsKWTefwQY3eJ_-8" value="" style="shape=stencil(lVbLctswDPwaXTEkwRfOafofmYlTa+raGcd9/X2hqnINyNpMbrKMFbELLMCBH972T6+7IYW3y/n0dfdzfL7sB/40pDQe97vzeNGngR8Hfng5nXdfzqfvx+f59+vTFDk9fTv9mL7wa8Z1inkCpfB7fhGIw98Xn+fww3i8Cde/hU18ph634zlQDiZeqPF2fA4UuomPjVoGAKEUDSA1SoBB6VTFALhRaduA2qkUS1mWJO8CmlBMBlCZBJwgjaotQq+QtGgCVtWuSQJZFdCtShJgHRQgtg7CFDGguBMKZUS6U7YqqQwFFE4qdVuHSYYEAJlkBegVABJJ8gBBdQgrlbQdAaAL8Yr0P1b3AX1R/UZWASp1FdGdwFTfATQLiNBAmlKqvvkEtIaSdinpmQGQnhKwpHuhhgDam+IBEQEKpeQBjCrd/FxSiyYwBLS9a/CkOwIIVWsg1Q1NjRiCnwLawIw92uycUYs0ML2VRHcANSGeZN7UOpgQ6+JlmnRAHmUqttQ3Omx10/qIAo5Q3Tt7EgxIfBhQZWnnBdCYOlpasjTbdaUEOF11RRVLOl9duLl47RhgoYw2e6Jg+1V3PTKpLnK2KUVZfH4/pWWlXeMzPID9qNT4AL4fSSyBmOAcC36dxAglDZ6vQO+s3NwpCAy39dJ5BL/u1nOGF4bo+02lAZbRueOkgSbWjWTDtXNQ91MMLhxdRSpVduFoPnzwBvxuuD78v2y/jIfDfFe//d9fzvXVfLHnxz8=);lineShape=1;strokeColor=#0000FF;" vertex="1" parent="1">
          <mxGeometry x="581.5147218980621" y="348.7993742694929" width="9.915447220854341" height="8.358295689175586" as="geometry" />
        </mxCell>
        <mxCell id="4MVQeJRsKWTefwQY3eJ_-9" value="" style="shape=stencil(lVnbUlsxDPyavHp8t/VM2/9gBiiZUmCA3v6+66ZOj6VmQ97CQXtsSavr2aWr1/vr59td9K9vL09fbn/sb97ud+nDLsb94/3ty/4Nv3bp4y5d3T293H5+efr2eHP4+/l6SI5fX5++jzf8POC8S2mAov81H3j/58Gng/jD/nEjnl3Q4jWeFhcneREPzrfT4iG7LEo+CZEX17U8u04sTqqS70TbFF32Sl7I+1N3Uhb54iLRNxeX2iIPg/XT8sW7tpo/4IBKAMWVVQE4rJEbFdEax0pdUKOrq8owms8EAJ0VoLkWCKC5spIoJ34lcT6ugOIaATTvggJAaWLWBhqLPqESHQD469cjAFQnVmrR9aCVDsRxLbmymjVzbrfs4urp7KlZAZCVfAlkIdHQiqFGp+HZYPXVSqCGMKWbC0EDcqKAvnIpVRpxDTf2GtCY40SHNACMGh3kM1cqxEoAWB1YVu1hvu8IgGcIvXucSWUDKOyENIvGBpDZCUknMgBYxPU837cBsNTaiwsGQK1UXFdszdPQ/wfATUEDCvN002kGAHqlbugdXWPUEOOHMAvAKUBXEecpQAz5RskiSkuYEbwFELNK0koPALGSoCcRDeisKcmudXMCIZ+U+b4NgAWQ1Jl6N4BI0ow0TT4AAjtBZq7eAkj2BqCsAFCD1WkAmgqgOnuDUwBRBSVTtoroooh2JRAuBe81v2vldBXd8KECVG6mvgIQtWdOaCtdQS8aEKKzMZ6Ewl2dNID1cON9a4yCj6zDkq5jFGFO6dqNlQKna58N2NEPaDaYWQ2g9Bki77xS7nSSGUqr1NdnMnynWcd4cJHjotAOy1ID2djzCGqmBLF5wNIbXWLlXFIBVMKc0d4do/HsEasj0Gl6roRKNKM74I5QqUziuQhSyRJsCaSvtOlY+CR3OcBUiI2l31mERDjBTZkbdmAnmEIKQOSAYLROzHOmGZAzZc60G+NKLIRMQzMArBM1LRO4wfhtmzL4krbfpu2DK9mwaBtLuNITK9nWFZ6pxA+2OQYgsU7UtN/D96wTNQ0+fN+ZDmaEGADWfpshBQBWFu0YBEBlOphBCwDaflvyJW4lMywik9WLxlEAClttmIEXADrlm5EagMBGajO0I2jpSG3WAgCwNGMXD4jywk4wqw0ELb2SWZ4gaBszq1nPIGhZANkF0IhBZlazYjpTFe0SC4Rn282xJlNXCrSJqybzNT6ZjVXfegLIktlusOgWC1oxP9RjuGwmCFbZi2jyVU+nfMwwWU01eW6FTy5116yRednNx1XJZtBiXBpradW5cnrbvffYSZEaZxfrY01GdLCbewD6RZ8GUqOp0nx6OLMaNF82IM/izXw4gZVZY4yJyqy9hdzHz3XvxkCRvl/vihIt6X722JtZg6Vtr5fqkW8dzRgQA6WQkQ/1jH3UfQKvU0bf7hIJY2NOvgw03oq0QhkyeFqUL/xId1YcP/59D7zbPzwcPidu/6+/H+LR4dtj+vgb);lineShape=1;strokeColor=#0000FF;" vertex="1" parent="1">
          <mxGeometry x="491.9469336189827" y="335.80054172048244" width="146.7855364847032" height="2.520860464775459" as="geometry" />
        </mxCell>
        <mxCell id="4MVQeJRsKWTefwQY3eJ_-10" value="" style="shape=stencil(lZzbkh23DUW/Zl67eL88O85/uMpyNBVFcslyEv+9wUz6zOmN7tXW20gDskkCBDY2wHnJP/z28adfP7yk8Nu3r1/++eE/rz9/+/iS//aS0uvnjx++vn6zn17yjy/5h1++fP3wj69ffv/889u/f/1pSa6f/vXl32uG/76NK2NrZY1K4Y+3/0nbiP/7j7+/yX96/fws37eZVT6AfN2qk08gn7eg6/n/B0/l89yXu8vbBAPk2xazyKcK8mlLQ+QLrD+NrQSRb7D+VLaWRH7Ceaa45eP8ZUswfzT9qnyH84ltK/MgbwqE/cbHdLt82xrYT8y6fjOoCfJxG0d9zf3AzuXDlo/yNkOBDwxdv62Q5PsW21G+bh0UZr892mfsfAG2crT/OLdJBrqb4+O+xG12MKCtHvVrMwxSwDaP67cdkYMw++xH+b51WE/YV/uQnzh/2JrcR7MQnL/Uo3zZAuw3qH2ax8i4HvUPYz/hq/mP+y1xC2APYasin/FCBtVXMY8H9mO3Q+THNsBBpC0ez6fGrTeSn8fzqYUDzBaO96uOLYB81fNvEfXVtn60h2YeDP1DlvnH7mGuHFA6XshuBlpggJ3o8Qu97jHkyuWm4xb62J3kpU8/LmnYN+kOW9A4OolRtwh7MCsKxz0Mc+sUJrOGmRlQbelhxY8BCf20KW7KFwoqzvzIPJ7SZE9njmQer8LsWwDFZTuTogPIdxV3rHPscOp8gDONOdG7GJzLTQfQKVUzbzeA9FCdA7ABFRxSdYhxDQAPU+0Q/ZLAhdXpFGebBvM2l9K6DohwSi2rEzDFEawzJ1SbDiAc1QxXuC8k2oM5PjnWvrvC8wFdkdF8YJ/zAWMHEo8BbQ9e51Aq7JH46cZN2IN50uwGJAJrye2hoC31ss/3GJAxvJmvVnxqBk8DuttDwgC9nLtomiPccBFo+VZY0ohqfGPuizwf8Mj5HgPGDmvOB2R1AhYfSHEWbwQGjLaHyfMBTXH5KIibhwPytkgC8rZFyRztGPCUpguKEeODqSkcv9AnKs4GSIwz66pgGmY54vkW1gDFmW12+ULeA8D5gKz5pt1ywpMrKh99q/kRysjtysejeZsvLDxgHMNuS+gElts6RlGLGI32YLYkSXPDJG8631o5K1nOXb4QESTagO5wPbn7BRSOX1iJAy1puszBdM9fEKrJ8E2iU5oa4zID3fUFSfYM+pKmp8JQA3WR7sPcg+xT+kn8xXxkU0/57aQrOlxC3/kC2a+PmzasjG7Geb7FIZEemmrasjrUdFVSyxIEYqnMCQg4iROTphWVj17DcpY7RyY8T2dNW1orRExFYsWccROmhzNdiw9CTcSM3JZFoHT0rZY7Em61oChkQIw7vXoVdqvgpV0x5/JFr4NpgeSToqWOPsYCZhZPjDroDtkX9MOGrST9yUgG9KZYLOFl7o6dSLsKz+WzuwfIHhu+FZgUESVZLJbzDHjNmqsOBFyPJRmziTyRVRa5s85Pt9jyqq7rp9BvgV4w2418UCQcdjr2KpOMbv0k39U+b+Tbnnz8RXlzvE6eUueyq/NJX5T9Zz8/BYLq7nvAapHJC2SOTP5FrbZYnAH7qcE5daYWguo3Yiwu0wU+RMsmL6xWwvtVHDjImHeVoeA676H8Ul7np2qXySc3P1UDxw4DntZP5+Mi3qN8dCUftVpHyGbJ6/opF1/yghe3wOef9DwJmi15gWaYxC59BZVn+8lqbzfyxc3P65Hq1e1+i55/YHsoql/ipc/kb+yhKB64sbfynfac1X5u7kvW87y7j25+vu+azuzljkt5rbbnm/vlzv/mfrn7yPfLzU9p9Jk/QXrcnU9C/Pnd8g92/ile0H2cW9V4Nzh+BUkxGA8Eje8R75fF3+ziO8kn7e4Ie8JxiR8UL9H9WvhE50+EH1z3RUD7OcNXZD9n+I384Rk+RPkT/EnyZ/gW5U/wM+GxM3yO8if4P9zkF13lwX5W/qL7pXxz5UdD5Mk/90cd9V2+UwEjK50aOR+smp9G7N6x/FRqmGl3GFf5r4u/5P+HY6gL5/tR42/F+z6S6rcxhVI0ng7ED6O6ItgOiK6KBJpfh70UeEXRCMCK3I4zpvLl8YZgD+pSYmH623H+sSLN9F7AegxoTLtmN2Bg2JhFmwjjRJ5guirb6nOhLzTX1sjFmunKcqsRj4ldaYS5aYxaBV3hgjqSa9MnhxPZqVUnF3QWmWueyqIu+pv0MFVxi2Cn5pbwCDDPHD5XCbSBKe4k2iXpfzzXktEJz6lOtTQsRq7avXxhIOxaXRpCW0bkVWyA4KJasJpv5irccW3MTjftk603DHtT+zYw0PmOaqfUjZ9x4Ksxe2x+RiodPWL4n1nhdefmzunwTq+86agJRe98R4MyIH3uGOUqQAjFskhxWNIKQUdNW1RFEr8riLewGigqNmWJLK5iR0LVtHE07AEaRWu8tkiMu0kdkx0D9W3YIYrXGOxch2ssXpGYahHD9ZNFtCWzHAFLZo7YP1PdF5gO7EWvqN1BrBekvT/taQAWYKICyvlogL5C3JLxm+OhFK85Z2wDKFC37vbQ8Vibc5VzIAuxerFcmx5ZaysK+lb1neoSWXmFv9CxNnUAbbq6sLvAAaXm/lgntnz6vr4ncHCV/fvWQVL1ak507Y/Ib3bNP98h0fmA4nqrJjIqq4VTljSwPyw7CmAO5CANsmkHWscwmqP2w9gNItYp+ca+gghrNSDIKSVuKs9OD2E34PMBQV3fGFj5sYxEsLEFJWoSjU0DtcUYOtZYVNOdm0TfM8MnsEGbjg5LL/6BoIA2epjzpPS77UnYE4IjOqYqam0Mc7NWz+tAOj5ptm6oGB8LqWFXzn+ismeLj4WrFlwDU0OU7t6SrLcbcP5BIfe797iQ97kVzx9c9kZcQ3Dserl5q1Jc/kkxJOwNl08JLvXZRWXbLINu9FJC2b9FP5FX0cQwPfjkC3sW8J8iXmDXLRMnl8/1PsaO6UvTeBkrt+WecE/4Vii4x2+RB/jGeTS49f3jBzq/JiyK4hvyqesljHgU5PtX1BCqAPnCRedq/Y0uwHr9qfU0QhPppH5I+H29XpXXdbuJnMs3zbv4da9/fXvTv5DVAyXs9zl7PUznf/Y6+aY+6V4/UyJbhtrz7fxdz4dg+5J36+F6rJDB6a4+LJnKzfkPrVckfn90Js/1WLcecohn+6We/bPzpCboM33R/T2zB3wN/72v7W/l7Yf3p/2/vH769PaXAZ5/r38KwP7r7c8I5B//BA==);lineShape=1;strokeColor=#0000FF;" vertex="1" parent="1">
          <mxGeometry x="456.9841375763515" y="262.71468108470424" width="309.0369552896331" height="195.06108843459955" as="geometry" />
        </mxCell>
        <mxCell id="4MVQeJRsKWTefwQY3eJ_-11" value="integer" style="rounded=0;whiteSpace=wrap;html=1;fontStyle=1" vertex="1" parent="1">
          <mxGeometry x="107" y="665" width="120" height="60" as="geometry" />
        </mxCell>
        <mxCell id="4MVQeJRsKWTefwQY3eJ_-12" value="pointer" style="rounded=0;whiteSpace=wrap;html=1;fontStyle=1" vertex="1" parent="1">
          <mxGeometry x="234" y="665" width="120" height="60" as="geometry" />
        </mxCell>
        <mxCell id="4MVQeJRsKWTefwQY3eJ_-15" value="" style="endArrow=classic;html=1;rounded=0;" edge="1" parent="1" source="4MVQeJRsKWTefwQY3eJ_-12">
          <mxGeometry width="50" height="50" relative="1" as="geometry">
            <mxPoint x="383" y="700" as="sourcePoint" />
            <mxPoint x="450" y="733" as="targetPoint" />
          </mxGeometry>
        </mxCell>
        <mxCell id="4MVQeJRsKWTefwQY3eJ_-16" value="&lt;b&gt;int&lt;/b&gt;" style="text;html=1;align=center;verticalAlign=middle;resizable=0;points=[];autosize=1;strokeColor=none;fillColor=none;" vertex="1" parent="1">
          <mxGeometry x="449" y="725" width="33" height="26" as="geometry" />
        </mxCell>
        <mxCell id="4MVQeJRsKWTefwQY3eJ_-17" value="&lt;b&gt;structure&lt;/b&gt;" style="text;html=1;align=center;verticalAlign=middle;resizable=0;points=[];autosize=1;strokeColor=none;fillColor=none;" vertex="1" parent="1">
          <mxGeometry x="183" y="730" width="70" height="26" as="geometry" />
        </mxCell>
        <mxCell id="4MVQeJRsKWTefwQY3eJ_-18" value="" style="rounded=0;whiteSpace=wrap;html=1;" vertex="1" parent="1">
          <mxGeometry x="103" y="834" width="262" height="70" as="geometry" />
        </mxCell>
        <mxCell id="4MVQeJRsKWTefwQY3eJ_-19" value="integer" style="rounded=0;whiteSpace=wrap;html=1;fontStyle=1" vertex="1" parent="1">
          <mxGeometry x="111" y="839" width="120" height="60" as="geometry" />
        </mxCell>
        <mxCell id="4MVQeJRsKWTefwQY3eJ_-20" value="pointer" style="rounded=0;whiteSpace=wrap;html=1;fontStyle=1" vertex="1" parent="1">
          <mxGeometry x="238" y="839" width="120" height="60" as="geometry" />
        </mxCell>
        <mxCell id="4MVQeJRsKWTefwQY3eJ_-21" value="" style="endArrow=classic;html=1;rounded=0;" edge="1" parent="1" source="4MVQeJRsKWTefwQY3eJ_-20">
          <mxGeometry width="50" height="50" relative="1" as="geometry">
            <mxPoint x="387" y="874" as="sourcePoint" />
            <mxPoint x="473" y="842" as="targetPoint" />
          </mxGeometry>
        </mxCell>
        <mxCell id="4MVQeJRsKWTefwQY3eJ_-22" value="&lt;b&gt;struct abc&lt;/b&gt;" style="text;html=1;align=center;verticalAlign=middle;resizable=0;points=[];autosize=1;strokeColor=none;fillColor=none;" vertex="1" parent="1">
          <mxGeometry x="185" y="904" width="75" height="26" as="geometry" />
        </mxCell>
        <mxCell id="4MVQeJRsKWTefwQY3eJ_-23" value="" style="rounded=0;whiteSpace=wrap;html=1;" vertex="1" parent="1">
          <mxGeometry x="472" y="831" width="262" height="70" as="geometry" />
        </mxCell>
        <mxCell id="4MVQeJRsKWTefwQY3eJ_-24" value="integer" style="rounded=0;whiteSpace=wrap;html=1;fontStyle=1" vertex="1" parent="1">
          <mxGeometry x="476" y="836" width="55" height="60" as="geometry" />
        </mxCell>
        <mxCell id="4MVQeJRsKWTefwQY3eJ_-25" value="integer" style="rounded=0;whiteSpace=wrap;html=1;fontStyle=1" vertex="1" parent="1">
          <mxGeometry x="541.43" y="836" width="55" height="60" as="geometry" />
        </mxCell>
        <mxCell id="4MVQeJRsKWTefwQY3eJ_-26" value="integer" style="rounded=0;whiteSpace=wrap;html=1;fontStyle=1" vertex="1" parent="1">
          <mxGeometry x="607" y="836" width="55" height="60" as="geometry" />
        </mxCell>
        <mxCell id="4MVQeJRsKWTefwQY3eJ_-27" value="integer" style="rounded=0;whiteSpace=wrap;html=1;fontStyle=1" vertex="1" parent="1">
          <mxGeometry x="670" y="836" width="55" height="60" as="geometry" />
        </mxCell>
        <mxCell id="4MVQeJRsKWTefwQY3eJ_-28" value="&lt;b&gt;structure&lt;/b&gt;" style="text;html=1;align=center;verticalAlign=middle;resizable=0;points=[];autosize=1;strokeColor=none;fillColor=none;" vertex="1" parent="1">
          <mxGeometry x="572.85" y="909" width="70" height="26" as="geometry" />
        </mxCell>
        <mxCell id="4MVQeJRsKWTefwQY3eJ_-32" value="" style="group" vertex="1" connectable="0" parent="1">
          <mxGeometry x="41" y="1129" width="154" height="62" as="geometry" />
        </mxCell>
        <mxCell id="4MVQeJRsKWTefwQY3eJ_-29" value="" style="rounded=0;whiteSpace=wrap;html=1;" vertex="1" parent="4MVQeJRsKWTefwQY3eJ_-32">
          <mxGeometry width="154" height="62" as="geometry" />
        </mxCell>
        <mxCell id="4MVQeJRsKWTefwQY3eJ_-30" value="integer" style="rounded=0;whiteSpace=wrap;html=1;fontStyle=1" vertex="1" parent="4MVQeJRsKWTefwQY3eJ_-32">
          <mxGeometry x="4.702290076335878" y="4.428571428571429" width="70.53435114503816" height="53.14285714285714" as="geometry" />
        </mxCell>
        <mxCell id="4MVQeJRsKWTefwQY3eJ_-31" value="pointer" style="rounded=0;whiteSpace=wrap;html=1;fontStyle=1" vertex="1" parent="4MVQeJRsKWTefwQY3eJ_-32">
          <mxGeometry x="79.35114503816794" y="4.428571428571429" width="70.53435114503816" height="53.14285714285714" as="geometry" />
        </mxCell>
        <mxCell id="4MVQeJRsKWTefwQY3eJ_-33" value="" style="group" vertex="1" connectable="0" parent="1">
          <mxGeometry x="230" y="1130" width="154" height="62" as="geometry" />
        </mxCell>
        <mxCell id="4MVQeJRsKWTefwQY3eJ_-34" value="" style="rounded=0;whiteSpace=wrap;html=1;" vertex="1" parent="4MVQeJRsKWTefwQY3eJ_-33">
          <mxGeometry width="154" height="62" as="geometry" />
        </mxCell>
        <mxCell id="4MVQeJRsKWTefwQY3eJ_-35" value="integer" style="rounded=0;whiteSpace=wrap;html=1;fontStyle=1" vertex="1" parent="4MVQeJRsKWTefwQY3eJ_-33">
          <mxGeometry x="4.702290076335878" y="4.428571428571429" width="70.53435114503816" height="53.14285714285714" as="geometry" />
        </mxCell>
        <mxCell id="4MVQeJRsKWTefwQY3eJ_-36" value="pointer" style="rounded=0;whiteSpace=wrap;html=1;fontStyle=1" vertex="1" parent="4MVQeJRsKWTefwQY3eJ_-33">
          <mxGeometry x="79.35114503816794" y="4.428571428571429" width="70.53435114503816" height="53.14285714285714" as="geometry" />
        </mxCell>
        <mxCell id="4MVQeJRsKWTefwQY3eJ_-37" value="" style="group" vertex="1" connectable="0" parent="1">
          <mxGeometry x="421" y="1129" width="154" height="62" as="geometry" />
        </mxCell>
        <mxCell id="4MVQeJRsKWTefwQY3eJ_-38" value="" style="rounded=0;whiteSpace=wrap;html=1;" vertex="1" parent="4MVQeJRsKWTefwQY3eJ_-37">
          <mxGeometry width="154" height="62" as="geometry" />
        </mxCell>
        <mxCell id="4MVQeJRsKWTefwQY3eJ_-39" value="integer" style="rounded=0;whiteSpace=wrap;html=1;fontStyle=1" vertex="1" parent="4MVQeJRsKWTefwQY3eJ_-37">
          <mxGeometry x="4.702290076335878" y="4.428571428571429" width="70.53435114503816" height="53.14285714285714" as="geometry" />
        </mxCell>
        <mxCell id="4MVQeJRsKWTefwQY3eJ_-40" value="pointer" style="rounded=0;whiteSpace=wrap;html=1;fontStyle=1" vertex="1" parent="4MVQeJRsKWTefwQY3eJ_-37">
          <mxGeometry x="79.35114503816794" y="4.428571428571429" width="70.53435114503816" height="53.14285714285714" as="geometry" />
        </mxCell>
        <mxCell id="4MVQeJRsKWTefwQY3eJ_-41" value="" style="group" vertex="1" connectable="0" parent="1">
          <mxGeometry x="604" y="1129" width="154" height="62" as="geometry" />
        </mxCell>
        <mxCell id="4MVQeJRsKWTefwQY3eJ_-42" value="" style="rounded=0;whiteSpace=wrap;html=1;" vertex="1" parent="4MVQeJRsKWTefwQY3eJ_-41">
          <mxGeometry width="154" height="62" as="geometry" />
        </mxCell>
        <mxCell id="4MVQeJRsKWTefwQY3eJ_-43" value="integer" style="rounded=0;whiteSpace=wrap;html=1;fontStyle=1" vertex="1" parent="4MVQeJRsKWTefwQY3eJ_-41">
          <mxGeometry x="4.702290076335878" y="4.428571428571429" width="70.53435114503816" height="53.14285714285714" as="geometry" />
        </mxCell>
        <mxCell id="4MVQeJRsKWTefwQY3eJ_-44" value="pointer" style="rounded=0;whiteSpace=wrap;html=1;fontStyle=1" vertex="1" parent="4MVQeJRsKWTefwQY3eJ_-41">
          <mxGeometry x="79.35114503816794" y="4.428571428571429" width="70.53435114503816" height="53.14285714285714" as="geometry" />
        </mxCell>
        <mxCell id="4MVQeJRsKWTefwQY3eJ_-45" value="" style="endArrow=classic;html=1;rounded=0;entryX=0;entryY=0.5;entryDx=0;entryDy=0;" edge="1" parent="1" source="4MVQeJRsKWTefwQY3eJ_-31" target="4MVQeJRsKWTefwQY3eJ_-34">
          <mxGeometry width="50" height="50" relative="1" as="geometry">
            <mxPoint x="404" y="1094" as="sourcePoint" />
            <mxPoint x="454" y="1044" as="targetPoint" />
          </mxGeometry>
        </mxCell>
        <mxCell id="4MVQeJRsKWTefwQY3eJ_-46" value="" style="endArrow=classic;html=1;rounded=0;entryX=0;entryY=0.5;entryDx=0;entryDy=0;" edge="1" parent="1">
          <mxGeometry width="50" height="50" relative="1" as="geometry">
            <mxPoint x="380" y="1155" as="sourcePoint" />
            <mxPoint x="419" y="1156" as="targetPoint" />
          </mxGeometry>
        </mxCell>
        <mxCell id="4MVQeJRsKWTefwQY3eJ_-47" value="" style="endArrow=classic;html=1;rounded=0;entryX=0;entryY=0.5;entryDx=0;entryDy=0;" edge="1" parent="1">
          <mxGeometry width="50" height="50" relative="1" as="geometry">
            <mxPoint x="569" y="1155" as="sourcePoint" />
            <mxPoint x="608" y="1156" as="targetPoint" />
          </mxGeometry>
        </mxCell>
        <mxCell id="4MVQeJRsKWTefwQY3eJ_-49" value="&lt;b&gt;&lt;font style=&quot;font-size: 20px;&quot;&gt;struct abc function(struct abc var1);&lt;/font&gt;&lt;/b&gt;" style="text;html=1;align=center;verticalAlign=middle;resizable=0;points=[];autosize=1;strokeColor=none;fillColor=none;" vertex="1" parent="1">
          <mxGeometry x="208" y="1350" width="360" height="36" as="geometry" />
        </mxCell>
        <mxCell id="4MVQeJRsKWTefwQY3eJ_-50" value="" style="shape=stencil(rVnZbhw5DPyaeSV0i3rO8R8B4qwH67UDx9nj75fagdqtUncNFsjbHCy1JJLFIvsSP/x4/PL94RLcj7fXl98f/rp+fXu8xI+XEK7Pjw+v1zf7dImfLvHDt5fXh99eX34+f719//6lW/ZPf7z82Vf4+4bLEmMHBffP7YfWpPj/fvl8s3+6Pu/sk6Qy2xcpem4fJdbZ3kto5/ZBymyvRSqx99LCbG/rV2Yf3GRfE92/kzLblyqZ7MeJT5N9btIis3fz+jlIyMw+tsk+ZXFkfS9x9ldUSYHdf5vjIQZJJB6yeD/ZhyqunNtXaWBv6zN/eUnzhrxKJA7zWSoAkjSyI7vSPIeQD/RK7cx19kEbKxyngMWczjFHXRwt4md7S1JHUtK2Ox8gSiH7SeYh8IF4EtLZS5lj2o+gPbbPuH9LCuIxy5BcwJ6tX+JY7t2+JmJfJCmcN5L7Lw05KImSFKhBdL4f5SmQRfN8n55GaNVxvg1QJJMTGwem+QTmskqOoEn8nDQ9Rhmg4BOMJ5QEnSpmWScikvjNjaDcvBBFGcAjVac2EuMYENAP2Z5AEqFFaZCYxkXsCRkzrXB2N4BCucm0PFn1hXpQdGTTGUBnQHXS2KHrSJYNEEewnAEgWisvUU0x+KoxIPO0ogixDGFFygB19oMaxTA/qDRIaS+ZAdpIlw1g0cUc1zCBLAcDB7TZcT0HmeOOAJXwagcEBDQOAKJXXvwNkBsCWGkwAMhHAwTCfAYA/XUPoMuhbUvsDAsZ90Pz8C4er1V58EE9NEC5A1AEJH7osgAoL6loRIDnoeESAlhR7wkEns60KPZYcguA5wOSgG2JA3TpRQLztCXQAmBi27tF/ndX33lERoByAIqTTf6dAUpBgOfUlzIC7lwTciUXxD1HV9pgnlNU6P3QjGd0JNie+lhlt5Rb+9RfDICqqFvvfVZ3oXXTyItcxU7JihwVG3UhJq7sD7TDdg1nADffkkmBxs6wXeJObATGM2Uotp2ciSwfTJKB2PC8QGRsuU2SVZYPCcto2Z55qkNB9AUeGmFQ6U64ZrYlj3yfE+d7h5XdxDeru9qwiUtpjBKOAfWggagkNKwcpHlLMQ5xcAywv6FrqqOwHgPcuMTdMIPdUq14rdbIsZpVE3raByr6rBd1QGSjmT3udRdqzZKJFywyoQWKNBnKMk/yVMrkhmLJ0fFZLlhAPa3peZkXeipxU8X5aKSFJAUUrGnIlONZT8WYK/Q+o0e+U3peWw5mT95JJElg9wEDPYs4JSfwm8TZAHkoiGOAtcAzGXmlSm/Rnn1IyWJ03MgujdnEMKKkioHOzywD55AzImLTGD+0+H5kyyaYmMJ9JExHvDDStiRiradHgVcqnV8GVObGSowWw6LWPBWQcdD4XgOTeEjYOTdPK0dG5dW4Kl9GW70LZfNFrDNdETNOPFifvVIoOAF/72RO7EF09R6AnjcktGecaAwVFnty3qVk7NqeEwC0LPcB1S07IlVvjYhG1X5eXno12nTlwTd7j3H7//US7r69fXh/4/ft+vR0e2G4/x/fENpPt7eL8dO/);lineShape=1;strokeColor=#0000FF;" vertex="1" parent="1">
          <mxGeometry x="364.15489540773206" y="1266.4012707418528" width="82.16492110320334" height="92.08145695555244" as="geometry" />
        </mxCell>
        <mxCell id="4MVQeJRsKWTefwQY3eJ_-51" value="" style="shape=stencil(lZfbbtswDIafxreEJEqidN1171Gg6WIsS4o0O7396BlyLCb+g9657keHh58UNfDTx/7lfTcE93E5n77vfo+vl/3AX4YQxuN+dx4v+jTw88BPb6fz7tv59PP4Ov/9/jKR09OP06/pC39mO081T0bB/Z1f5EiZ/7/5OvOH8bjihWLp+UqxbvOeqbrOQDI2KBRiZ1A8pbJtEJi89AaZSgIGhXzqDKqnHLYNmCn0MdREDGLgQtH3BuoSiCFGcn1aa2x5u2uQHBUTtEblgUEhDn0dhCRvG+REtY9BlVGQMpi4T6s6KbJtUEITQjPQRCOXarBpndQFXKpCpf8F9QiUoWoOg+FRnZWPbHgPhKS8WH8cqHKtVqnKA2XXajPqKGBesuEz9qf28XpyEfSyW+K7GiRgMP1AH3B4FLAUwyccQAqGL0hxWgAj0daoWwUubHiP4lUBif0+5r3NDxS02CbWFkL5kdax13o9aDCJho+oAbQhe97h75eWjiufwJSrN1POtQJu8VkM75D/lZxteIf8qcTF+gNGovLZ8hHzNwOuoHi1v3reE+Pv12J4dI5N/lh9Mu6vz/GRgtFnIgECKpG4bwBOlMFEkUS+jzgFuBBloWw2qAzPyaQ57TVa8CmgDpghVHVMgyrrNmFcmuYACFr3FSPr1eS+b6E+9RbaSgF0Tsi286daorXO29FS9HRDh00mMXmNcCXyoc2qZSWqcFpn8n1aZVlI7vLLYbooQ7UCvu+a9lc86k5nF1/lHVDesjyslIr9MYe38gHG6/p86g4pQKfOblvKM5CEa4JZ8Whau7YLrDZYgbw5/JRH24QuPzc88n+ZtWseTDtvDwPlYQd88i73mNeH68XxbTwc5nvn+v/2oqmv5ksqP/8D);lineShape=1;strokeColor=#0000FF;" vertex="1" parent="1">
          <mxGeometry x="427.37247291283484" y="1321.1033273421942" width="37.935698652941156" height="27.27723984550773" as="geometry" />
        </mxCell>
        <mxCell id="4MVQeJRsKWTefwQY3eJ_-52" value="" style="shape=stencil(lVjZctswDPwav2JIgudzmv5HZuI0nqZxxkl6/H3BepgIoLSu32QZK+FYAEvt+Ob18e5lvwvu9e10/L7/dbh/e9zxl10Ih+fH/enwJlc7vt3xzcPxtP92Or4/359/v9x1y3714/izP+H3GeeoxA4K7s/5RnXU3L87X8/2T4fnhX2klLW9p+C37RtVtvaRt+19pFasQ6VuA4I8LyhAqeQjAFTKBhDHnVUAZ/JJA8QlEEPkEeIA5Ey5bAOSo+w1wMM3pEKss5QyRVC2zOSbBkidQdC5UNRBS1SlbQMkJ1UziQslEENhStol9pQTACRq+g0hjbytAyo5TVbfKAKAUM3pN3iGWarBUqONJ6zbR2Jd6EgRkLvm8fdHyBSQfbX2njygRXODNcPeQRq1QByNvUP2Ei8b+wQaoWVLUzyNWiOv88njxpa9GRaRAuCo2GftT6YE8i/2Vdu3S/43bS+Eq6AHVgBCchxxNQzy1PI1IUuXBVSzKaehUL6qaDKSC4qhjg2wAKC2aVMbSN0aqnOlYEbLBWJI1vUAFqai4dUButP8BSrVaRYFimC2CMCbzUkZFbra3k+XIsg6qbIQcJlNxEwO9xoH+3wweztRvfUf89RKkUv+GyXSCwA2oHdupcYZh9y0S12PYZ+K3midp7ibk+k16QQ8YMLUnChqoYUZeZe7+UpAHnpuMZFgJ8SxJBdZSigGWWt6jQv3IJfcNPNEzYC0ymJOPAGQFMljhi4AFcRQJ2UuWWKkFcIUQ8NixNllzjho0V+sXRJJWEDhSqagg44BBi0asho9VYeT6wA/ZtDH0Ihwu4kONqeF7ODcFqVtyCePqFjLG6UtUTHo6X5a0G+QRKO09vOI7rjKY45snXhMHWqhBtjaV42elc1D4dxPbZoaDWv5fi40ykpaCo1KO+27TgGFntrnUwit2k8H58X43wDML0D7TbptChjVwFkJ07AMc+TZVqACYk9no8bjxLdlrzkklMD+GPsqggDbmy8XZRz3/i/emqAemfIpTYP9MfWSAXsVH6qc1WD+r/tSc9leLj4/Cz0cnp7OX5WW/9vPSHLr/AmKb/8C);lineShape=1;strokeColor=#0000FF;" vertex="1" parent="1">
          <mxGeometry x="327.9469336189827" y="1375.6897689443454" width="65.3279839592781" height="5.081117906600672" as="geometry" />
        </mxCell>
        <mxCell id="4MVQeJRsKWTefwQY3eJ_-53" value="" style="shape=stencil(lVnbUtwwDP2afdX4bvmZtv/BDEvZKWUZoLe/r9wdbyM5OYG3JejElnR0zSHevD7cPh8Pwb2+vZy/HX+d7t4eDvHTIYTT08Px5fQmvw7x8yHe3J9fjl9fzj+e7i5/P992yf7r+/lnf8PvC85R5A4K7s/lQank678nXy7yj6enhbyn0qx8TNvykbzT8o1S2JZPFLKSr54ykM9UvZZPFN22vNy2avlKAcg3ClHJsyOfgX08xaABVxOsAyLlogGFHDohE2uTMuMrMTntY27UwJWEFEGf0BwV4OQQBgcWgFYAIFEyAA+tFAqlOgHQCbwGaICojlKzAMSMGCj7CeABIFGergQBxZK7A0AwxEZuchwDHZIfwbgAIKVTImfiocH4TKKDiQcmRoBmHdfpDa6UhXzaSnwN8nVAHkZcRByid+bBnCsgUwOOK36yUibPABCp6rQnWaOgEyQeDEAyMzqh2ZiuDV5J8m7VStcygnYdkKwfqqQ2EHHyvmqu5MaTdQBTm4pVBDqITbxOM0XqCwJEayVxJQSIX7XSuUJqCNWMWXMcWq0D2KaZJGYA9JYI9tpKKY7Utg7wxLoCSeJpCBBHyF8BbhB+HZDJ6ZiWipFR1ZWA1FfyaZhhHcAjk165RAndSLKWjh832LslX6y8Qwo0qsXIoxot8mzlK5ZvOsP4kWc35TUpAiSRd86WkgRDbT5AOrMdea1AxRSaDCRdDXZYtfIooc4O5vGCdxJIGg4sn4rRt2J9o2m0xwU35bOxf9x5v06NEeatLm9CmDKoBl1fS1BUlFuzOcXhgBd/WXnUNXc+fFCep/vggG/e6ov50CZ7An+tBGSETXw/wBSaMZlsymsC4aaoG0gHfN3LQKbw7QbMx+R5IlzGEVaG/RZFCQKkb9Q3krJXkYmi5VyUSyKfhcHJa9LNcFqWWm+iWLphlBalmzBpTvqVDOJA+hXD6xKoACtJR2RbqDJCdbPnMiO5wzr4qdZHCJBO15hVWk80UvTO1CTrttv7mmoT4FpEumvWjuudJOi5ev9uANJoghP6hKDjU8iSgKf7DGIAAZb8PuVoswrhGzghT01aS2OdtDmp6ZhuOB76LKgjTqIc9V192mQLYFCn+jxrrlThlNMnZmMlhhuqPpMnC0ATQp/6jVmlmCLAtFdYVJd3ri52EdN2ZBcxLWD2ECs7ngYHl5UtUoNt8MqeSgCAgH0TFi0AbWDCNK31zgno0Ld5Ez0qauWz3S0IYx2opH0jabZIGfrBe7u0lczhUdkaq7vFEikAFeqYwRcLG9QL5NHqL7YpqJlPdk3AV402ltpOZ5nKxKh5s0vzWsdAvCo/LeX7khrkemft098PODTtd+t13t6Q90bfDMPGDX4t5BHj3GTPCON4aoVrIAYNwCwvHgGEnu/jYNmZ9C0NVv/JnoXhtmLyV6mw8Zz40Pdk0D4f+wi0Ly8//n9xuj89Pl4+WC3/b79QyaPL1634+S8=);lineShape=1;strokeColor=#0000FF;" vertex="1" parent="1">
          <mxGeometry x="409.6546135056185" y="1377.234571495695" width="130.1898474758439" height="9.765711955032332" as="geometry" />
        </mxCell>
        <mxCell id="4MVQeJRsKWTefwQY3eJ_-54" value="" style="shape=stencil(7VvLchw3DPwaXVkk+D47zn+4ynKkimK5ZDmPvw+YLc4smzPN3VMuvkm76BkSBBoPYh/8h+9Pn749Poj9/v72+vvjX8+f358e/C8PIs9fnx7fnt/1rwf/8cF/+PL69vjb2+uPr58v/3/71CTbX3+8/tme8PcF56w11jaY2H8uH1kTy38f/HoBvDx/vQLUakoc5MUUofK5DvLB+MTlwyCfjOXryTLIl6X8uF9njdS7AGJypoA07thFI/4uQO6buhGgh+b4HhCgp+buAkQTIweUEVCM3AXwztjFkgDgTeUnjYBsxFJAHAFBfYHbqgfb9qZw07CjsQZdUiCAYsL4hrhYUjYpj4BgHNt0MgEAmZtGMCWNDuq4aYhJAIjGEy2VaipQgCqaLKlMe8jeBOJARUwY35BVb0RL+nUZz6E4SgK6ADeyRokmk4NL6i5uBOimiXknfcOoVlV0JHuIxfiRuWs0liwpeqR6tS5LaCbowY2bVvtNhPmCHty46eaD7A2+B4+dvbcAdoyw6NSNF8iuvcYPj5soZBM+YgRSNbEQp7wVKx5EIEetzBhH+66eHoRM9F01QJA3yObzm/Ulmga0qAz2rW5OXK6F/fENmduGRihIBHIwmbCAOOMBYGkY1aBpxyWlRJnMlSk3EXpwGsfjaK7qhJlYq9MFjMYXY+eFY0BE04jS7fcYEDBAqNcyFnC+W/8G4BmZAuxIG4GzseZTcHDB9UccA1w3hC2yF1PZpp1x4x58MpntwZo07sFr2OMAGf3Bi6ksUPdosMnbTp4n8gIJWekh6TjE9ax8k0+dE07k/WgW6rCBqDR3hW/yzlQWELujbMRdKcFkzJTUl1geo7sbTaIZOll/MgKBRHoydxwMTYX1WOPJ8yOup9Dwr14OGQw1t9CzlV28EocJPVrcthiP2ZHu1TEiNXm0BfW3QrJaQYJQysjM3yfbiZ0mT+QhNimtskrBdkvZ5Eu3vhN5XE8xjti+nfRZuvWdyPvp+czWVF4meboeiZM81Y+rkzxdv5v06Ynv2h5PrvVD9W8nfToSJKc4r1xSia9PLRGVL8Q+j+RZ4mEPuI1lvbYH6Cv5QM/XwfMjLUvVPmH9gVal1pSpI8L4wfXcc8tGeSzFlEa1Q59eoUSmziUY6LwRluhiHHU0jCp1jq5leQHUG0O7uCOGFtGxLK34Uveife3MzHIP+LtmWJExJcOB52AWg1CiMcu5qUqiJOKmenhPE88yYQEaWeSpAXMwBdA4FCZi9rT2PASwZoybqioFUK0GTDT0E0u4oQEEASzYta8jAhibtwWUCcDVinweaPuz6SRNAKZWBcxq5W8ok2mwkHEIoNZ6tKTIzmHe9EZOp2qdjI+lEQcH52mecmAavpd+txqfp1n6gXn73kG93YHSwuOmJbFk+hDAKr0Dmgmrkh6JTBXN1epmj+ObdpPHrVx0WhJ9g+/V4617uBsg2Jx0Wxf4LADhwVl6DhUbJZl6dMEqIlLxPDUYekV6EvuBI3mnKk6+T90mYMfG0bzFY4fU0d6Cx60Kb17iDaPnjcUe5He9s9a/oGYy7QY7bBy1zhAz/MnZhWreYt+l9Tlo7YN3i6knkSfyEdafF7XYz1r4Zy3M5f/fWhj7fHlhPwnWk3jWhFWN1trsPsrhZehet5yVq3C+jpKhR/1UfheFbehMpzmCCXCV21sBZ/WqgDhjZiViuMCh1JDQdAot31I/9+twTk42TScl1LPmjnWgyW3GOOT4ncTWEb7qoLMJi4L73W3vrJ6fbgDo5ABeWO8aPpGfJ0RY96I1nacrksgSNosdAy+8RHJInj5QMmk9CUjCUr9UP0s6gc594W8QvNoKfB6r1TcAkGUHYNxDiNQrG6HBBWChFK0AmN+Ijg6tqOFDMRwDvxCYbp8ij5LqKjCOkRwNey2PGL0hJXpNuvcFN/KydNqoMTW0OXkBIwGvKXLp9nsMSJgLFaEjVlKwzCuR9vTUp+uYPZVKzdu7TnFbeJK+yGPAdjO0AbYL7GNAnIZWkolk023eA/qMi8s0i5dvtdBZoOCRiWulkSQknHJpb2CAil1q3QO9bpzifk3UgZp/BTwHZt7JI7dW18P7MaCgP5RC6T4L0kzhHeicp1FRS09a3QU2nXm+U6ZbZV1kYm+YBnVUDXT8VrAeSoFeSOgxRZhZ4ZtWQ4CkLWbqompqUMJGz8dXCwbFaOkdTJsig5CVKfMpAHqf6oOLmV3oTAZ+tVIr1o3r4VIELMdXEbAckAXAegQXAcshXwQsx4gRsBxUxnJ8OQqNgEiJ7AAglCoPAAtrnQCFZg5NHosqNn1QK7asw2o9QBnCGaP2eNnlLe2TNnkBeVoHVGwx2dWJQVpvaQerzXcGkF/oHwb87crPIHbyCdQ6BWe7Ot+S71t/xecv9FNx/Qv9V9Q/veU5+kkJbaHc+xuUGwD6x/6Tly/PLy+XX8xcf48/kdGPLj+v8R//BQ==);lineShape=1;strokeColor=#0000FF;" vertex="1" parent="1">
          <mxGeometry x="270.71899770064806" y="1388.3652195875345" width="199.34129881819186" height="96.34513017596588" as="geometry" />
        </mxCell>
        <mxCell id="4MVQeJRsKWTefwQY3eJ_-55" value="" style="shape=stencil(lZvJkhzHEUS/Zq5luS9nivoPmhEQxgQBNBCSyL9nJAfZ6PKofk3eBoP0yS0WD8+ol/zDrx9++uXdSwq/fv3y+d/v/v/689cPL/kfLym9fvrw7svrV/vpJf/4kn94//nLu399+fzfTz+//fuXn9bI9dN/Pv9v/YXf3nD9SHOBUvj97RezHrX8+Zt/vo3/+Prpbvw8UtHxHcbHeMR0BrQjZACkoztAigAoR28KKAEA/YhBAXUCYB6tK6CPx4CUjuxmGA0A5ZjVzQBLsnvrboYGM+Swz+R+03BKOR0zKiDDxeV6JHdKgZbUjyo3zbaU7R6qAiKcUolHlz2U/SeuAXkf4h0ggvEV8xYB5KOCaRS/6XwE2HSZRxFAwour8chySvGYHQD5iF0BBW661iMkBQRaUnPmHdBF6zjmOSyNiabRbgu4AwS46Wbmfb64MY5MM5RjnE9p2FXCKbWmcWnYb+Ae2jja+VgH+0O3Q5RTMvMG4+suLo18jASAsm3zDkDW2uv+ezdA2hnmGmCHeHbREY8Kp9TtXmXTYVvXJcD+u1YFZJjBFjCHAgLswc4knQG2yAnHatdUugIG+IMZguzBAJ0AlgLdkhoB+rb+O0CFyGfuEt0eKGoYYLo9ZLo426IDkC1ZUJHY2m905RoQLy6OEoqF3m/c5R4Ae/ieDf7qDFemQcdqKTB7W4K0u+jUeQ9m3gX8wQAaKi3agmlMIyduBvK4aaH3PIPFkUl7GDvO3QCRaevYDrkBrWJSnFMjXzVrBZ82gLDKmraHPAScT8nIRHoyw/mU8jgGhHs/Q85sS1MT++L7tCR3D6ntP/HINCSxp4xJcRmfACyhQCAzf2jni0vhGGQaxvnOMxjf73RKQf0h2j1Q5OtHqQogKr0SytmnrWaZ4HF9aBlngEKApPVDbPsYHrGZKjNUpNLmLlP2UI4MMxgNzWfjs1JwwimVpozMis1M3DscTcoBrPty0WqgY5ZeznIe39B7rOpr50souGEz5CL+jDHMrnQEGZ/gymJWLpZ2Br4eH3T9CUPk2Jnv+/BIjHsf3vfhk25Xi8Oyi7/ry92mcstRWC+ko5yjyjJO0gyUu0ROH2a5cvQNd3vLwLerrZhiLQbK6ZSdcx+Ml/XXhBEobEHkZvoBbdnWc7aF1jE6OBmp327kwXipy3vbzvngfoUUWUgliSdfVCHkK8WNTxgb6k5yd4UXlqcaGqzGiPD3u96XjSfByXEPK0kyiWwWqxwARbZ4tKwAYgbmgMI9rOghFSLemMYdgJQUS1hDqt+OapClRGGZBhi06aZJ0qqkTmFiuIJ8ot4UpwZdoy9EVswzswA4qpurSRZYjAouznxtiGZW8VjNeZLIRyy9pKL1xHySuYuG9zmQvCdXphmAzHsBZEkTi6gFCAogSrdOaSqAbMkA0S0J+UfR8iCGgC5nYVIo2rMpspaOk4U/AzQHoBrHANUtiSStBRDrG5tHPgQMBVDNv/bg7JtkueQi2XII3oOK+R2p8rpq50Ek1izrCwoo/OSRswJI0loOkfRY8eKufJQ4wyVgPIkCsqS5FaW/uum57ffhsUYFPFlS8B7HxjfdHqiqWMY33JKeWOvfAyStQ5Zp0JKie5VsGAQsK4rEu1IQ590hS8pb3r8G9B227tIoRY3Y3NNTRBli1d8CCCj8GZ2R9wUD0APdqgfdKwyS9KSRb9zO7RHpq+4VBmm9YydLhyYBVuPY4NDaHQvluOfF1IZlZ9G6x1gu0TH3IGk8nThr2sTors6gABM1G1odE7luE02+oVIbtMzuCUlJ2Ld5VxfSM0RQQb7xa1DQd0Kra0kdDJuZ3tXNpKEEVe6sLo94PnL+ZlF8X7Jfi0xEtqPGXnO5STlQCdvtIemBOcvjQ8KY1fQ0OWIN5RTMNpcelWV8pNrIMbuAb2RLTxNRh+sW9z4bufQq2meSuAlkKpuw5E+aRVFyXbFnZOml5/XfhOxHguyUnLej40PFV4wz8At5cAVIwhlaU4uwOyd77kmPKHK87cOp1hXblZa274V0WNJ6PRBA2xzvOuXFrWTeAahcNiojOsd6PeA3FiknLApRlF61gMwwUd5cJdY57y2xmPL8VO5uxp1pSVMZ3eIK/Dgm1p0zsqHpSObz9zp561ovgsiGrtIZvY5dIVhWWIuSjNz4UX1qC4g5Fdrr1GeZ3rGwW++aQjMjL2molmJeSFlw2auTR/FBuukeDDDIXus2hTtAolOqyoxsD8Q0p6s1l4RMgKztE6vZhzbtuiGMbJLc6fstFoBOyXV0LAC1sbieEQOQfrS6UpoC6CHU970MLux8Z40BSKzxvTsGoLw7XBOiAbDDqVzMQGr+spygALLWcWUaZHxWdjR3cZRSuhO2l7VS41h37XUZb3r1oLg3lW96zzWgOBdl8r/esNybB8mjPWhzw+A+4TZcE2JHj2tNxfnlIWAarbhuuYmNAS07aZH7j1ZvpwjbEXm9ZTTVwCKKZrWrtU520dUBK/pRxrLZqK4qVHk77TUgOmmx7Aaja/I9N0+9AzRqLO6q7qwUA6dkZESl9spahxfzGxbPxVWrT9rg83QfC3RuUu+uX7sjJ8vVtfIP5Pc5adRY7IP2EC50bSrL1tttVADqqUVz3BzIZlK6eErCjzZ8Zz7PYAWGOtDAm15febgXugabjkmL13UPpJTEiyVhx5/2p6z3CMon7vuIjmfUXVt+x67i7qJeR/HVddbNjtJTc4bNPWZNGa6NpxLOZZ4nH81cjafO8abS64pGlDudmsFfLnVtyZn1idSsaY3lmO5e8iumkL/7adfz8fbD9+/I3r9+/Pj2Gdr9/+t3Z/art2/W8o9/AA==);lineShape=1;strokeColor=#0000FF;" vertex="1" parent="1">
          <mxGeometry x="202.37487822054277" y="1343.9102116581964" width="114.54159130748965" height="39.960380320776885" as="geometry" />
        </mxCell>
        <mxCell id="4MVQeJRsKWTefwQY3eJ_-56" value="" style="shape=stencil(lVbLUsMwDPyaXDWWbPlxhvIfzNDSDKVl2vL6e2QySSq3EcPNcbKxV7sru/N3p+3j27ojdzofDy/rz/7pvO38fUfU77frY3+WUedXnb/bHI7r5+Phff80PL891i/r6PXwUf/wNeByASwVRe57mPERAv3OPAyAXb+/AJQIFBQgyIw3AAVSVgBOkJIJCKwAsUAOBoCBNIeMgMYKWTZAClAccF4GpASsSZcEriwDIkPWK6Bz4Nwygn1bJqmDM4QIBLEBBCBeBngPsSlTBDRYk5RJs04M0agrMYSklfOQ0VwBnfYGQrY4ULtCQHCGN+pr1P4mYEsHHL02AuomjRVmihOAgQ3ScxEvVkiGmapMTUbFLFbkJiNMVaLR8UuRc9qubAt34eZJajaVq4HRdq2higZAIqnLVGNrsK6hjzoQDN6QurYVrVxtPcaW+CoQc3O77b4r5YrdLKX5el2luUEvAsp/ABTBaW9kEc4gjbGtUnaAltJA2hlJQmvI4Ns+Jolyxv/FF5oASyc0CFw5VXqC2ZTAaRt5NPlGiDo7hKbt0I/lmM4GGk+L2xuiNp1iIoOA7Lfo5NhN9fok+fOoYmy+T0oAGcwXjk2/2w33lcv37QVFpobLjV/9AA==);lineShape=1;strokeColor=#0000FF;" vertex="1" parent="1">
          <mxGeometry x="216.74357915795895" y="1492.5997258198836" width="1.841757435229738" height="1.8427703882511455" as="geometry" />
        </mxCell>
        <mxCell id="4MVQeJRsKWTefwQY3eJ_-57" value="&lt;b&gt;&lt;font style=&quot;font-size: 20px;&quot;&gt;struct abc create_structure(int,float);&lt;/font&gt;&lt;/b&gt;" style="text;html=1;align=center;verticalAlign=middle;resizable=0;points=[];autosize=1;strokeColor=none;fillColor=none;" vertex="1" parent="1">
          <mxGeometry x="251" y="1541" width="368" height="36" as="geometry" />
        </mxCell>
      </root>
    </mxGraphModel>
  </diagram>
</mxfile>
